<?xml version="1.0" standalone="no"?>
<!DOCTYPE svg PUBLIC "-//W3C//DTD SVG 20010904//EN"
 "http://www.w3.org/TR/2001/REC-SVG-20010904/DTD/svg10.dtd">
<svg version="1.0" xmlns="http://www.w3.org/2000/svg"
 width="1500.000000pt" height="1840.000000pt" viewBox="0 0 1500.000000 1840.000000"
 preserveAspectRatio="xMidYMid meet">
<metadata>
Created by potrace 1.16, written by Peter Selinger 2001-2019
</metadata>
<g transform="translate(0.000000,1840.000000) scale(0.100000,-0.100000)"
fill="#000000" stroke="none">
<path d="M0 9200 l0 -9200 7500 0 7500 0 0 3775 c0 2510 -3 3775 -10 3775 -14
0 -12 37 3 43 9 4 8 8 -3 17 -11 9 -12 13 -2 17 9 4 12 114 12 504 l0 499 -51
50 c-29 28 -49 53 -46 57 3 3 24 -13 46 -36 22 -22 42 -41 45 -41 3 0 6 27 6
60 0 53 -2 60 -20 60 -12 0 -20 7 -20 16 0 8 -18 33 -40 54 -22 21 -40 46 -40
54 0 9 -4 16 -9 16 -15 0 -40 64 -52 132 -20 107 -11 378 12 378 5 0 9 14 9
30 0 17 5 30 10 30 6 0 10 14 10 30 0 17 5 39 10 50 6 11 14 29 20 40 5 11 10
26 10 34 0 8 23 37 50 65 l50 51 0 4320 0 4320 -7500 0 -7500 0 0 -9200z
m8490 5866 c0 -10 10 -11 50 -3 49 9 50 9 107 -34 32 -24 78 -63 103 -86 25
-24 52 -50 61 -59 18 -16 55 -88 62 -120 2 -11 -6 -38 -18 -60 -19 -34 -27
-39 -55 -37 -18 1 -49 8 -69 16 -20 8 -51 21 -68 27 -18 7 -33 18 -33 24 0 18
-35 35 -89 42 -33 4 -51 11 -51 20 0 8 5 14 10 14 6 0 10 20 10 44 0 25 5 48
10 51 6 3 10 29 10 57 0 53 -18 80 -63 94 -15 5 -17 8 -6 15 20 12 29 11 29
-5z m-831 -84 c18 -25 27 -29 83 -31 85 -4 104 -3 168 4 45 5 59 2 77 -13 26
-22 63 -86 63 -107 0 -15 16 -48 36 -75 21 -27 27 -60 12 -60 -8 0 -27 -14
-44 -31 -16 -17 -39 -35 -51 -40 -23 -9 -31 -43 -13 -54 17 -10 11 -34 -11
-53 -12 -9 -31 -27 -42 -39 -11 -13 -24 -23 -29 -23 -4 0 -22 -13 -40 -30 -17
-16 -37 -30 -44 -30 -7 0 -16 -9 -19 -20 -3 -11 -12 -20 -18 -20 -7 0 -23 -9
-37 -20 -14 -11 -35 -20 -47 -20 -13 0 -23 -4 -23 -10 0 -5 -7 -10 -15 -10 -8
0 -15 -4 -15 -10 0 -5 -7 -10 -15 -10 -8 0 -15 -4 -15 -10 0 -5 -6 -10 -13
-10 -18 0 -67 -24 -67 -32 0 -5 -16 -8 -35 -8 -19 0 -35 -4 -35 -10 0 -5 -7
-10 -15 -10 -8 0 -15 -4 -15 -10 0 -5 -9 -10 -20 -10 -11 0 -20 -4 -20 -10 0
-5 -9 -10 -20 -10 -11 0 -20 -4 -20 -10 0 -5 -13 -10 -30 -10 -16 0 -30 -4
-30 -10 0 -5 -9 -10 -20 -10 -11 0 -20 -4 -20 -10 0 -5 -7 -10 -15 -10 -8 0
-15 -3 -15 -7 0 -11 -50 -33 -72 -33 -10 0 -18 -4 -18 -9 0 -5 -13 -14 -30
-21 -16 -7 -30 -16 -30 -21 0 -5 -7 -9 -15 -9 -28 0 -65 -24 -65 -42 0 -10 -4
-18 -10 -18 -5 0 -10 5 -10 12 0 6 -10 2 -23 -10 -13 -12 -33 -22 -44 -22 -11
0 -34 -7 -49 -15 -16 -8 -37 -15 -47 -15 -15 0 -16 2 -5 15 27 32 35 41 61 60
15 11 27 23 27 27 0 12 -68 10 -75 -2 -3 -5 -15 -10 -26 -10 -10 0 -19 -4 -19
-10 0 -5 -8 -10 -18 -10 -10 0 -24 -9 -32 -20 -8 -12 -26 -20 -42 -20 -15 0
-28 -4 -28 -10 0 -5 -6 -10 -12 -10 -7 0 -26 -12 -42 -26 -29 -25 -30 -40 -11
-100 5 -17 -1 -26 -38 -48 -53 -30 -64 -32 -89 -10 -10 10 -41 19 -70 21 -29
2 -63 6 -75 9 -28 5 -31 34 -3 34 11 0 45 11 75 26 59 26 80 55 63 87 -9 18 9
47 31 47 5 0 14 16 20 35 10 39 32 65 54 65 13 0 77 54 77 66 0 3 -7 12 -15
20 -22 22 -18 34 10 34 14 0 25 5 25 10 0 6 9 10 20 10 11 0 20 5 20 10 0 6
13 10 28 10 17 0 33 8 42 21 35 51 94 99 121 99 28 0 59 18 89 50 14 15 37 31
53 34 15 4 27 13 27 21 0 11 -13 15 -50 15 -39 0 -50 4 -50 16 0 24 28 47 51
41 22 -6 89 21 89 35 0 4 7 8 15 8 20 0 68 47 60 59 -9 15 54 70 116 102 23
11 54 32 68 46 26 25 93 58 188 94 61 23 71 41 37 65 -30 23 -31 51 -2 81 29
31 52 29 77 -5z m671 -772 c0 -5 7 -10 16 -10 20 0 44 -24 44 -44 0 -19 36
-22 44 -3 5 10 7 10 12 0 7 -15 64 -18 64 -3 0 6 9 10 20 10 11 0 20 6 21 13
0 10 2 10 6 0 2 -7 11 -13 19 -13 18 0 18 -27 0 -46 -17 -16 -46 -19 -46 -4 0
6 -9 10 -20 10 -11 0 -20 -4 -20 -10 0 -5 -9 -10 -20 -10 -16 0 -20 -7 -20
-30 0 -16 -4 -30 -10 -30 -5 0 -10 -8 -10 -18 0 -10 -9 -24 -20 -32 -12 -8
-20 -26 -20 -42 0 -15 -4 -28 -9 -28 -5 0 -23 -3 -40 -6 -30 -6 -31 -6 -31 30
0 35 -1 36 -39 36 -44 0 -56 16 -41 55 12 31 53 34 73 5 9 -13 20 -18 31 -14
22 9 20 21 -9 50 -17 17 -24 32 -20 45 4 10 2 19 -4 19 -5 0 -13 10 -16 23 -4
12 -9 30 -11 40 -4 13 1 17 25 17 17 0 31 -4 31 -10z m-213 -112 c12 -26 0
-68 -23 -81 -19 -11 -18 -37 1 -37 8 0 15 5 15 10 0 6 6 10 14 10 9 0 12 -7 9
-20 -3 -11 -14 -20 -24 -20 -10 0 -21 -4 -24 -10 -10 -16 -65 -12 -82 6 -13
13 -14 19 -3 39 10 19 10 29 -1 54 -15 33 -33 40 -42 17 -7 -18 3 -59 16 -67
5 -4 7 -15 3 -24 -5 -15 -9 -15 -23 -4 -13 11 -17 11 -20 2 -3 -7 -12 -13 -22
-13 -9 0 -27 -9 -39 -20 -24 -22 -42 -26 -42 -8 0 6 -13 -3 -29 -21 -25 -28
-35 -32 -68 -29 -33 2 -39 -1 -51 -25 -7 -15 -18 -27 -23 -27 -17 0 -57 49
-62 77 -8 41 2 56 32 48 57 -14 91 -17 91 -7 0 6 12 12 27 14 24 3 29 9 36 48
11 52 32 73 59 56 10 -6 19 -20 19 -31 1 -19 2 -19 6 -1 3 10 16 30 29 42 19
20 33 24 89 24 37 0 65 4 65 10 0 6 13 10 28 10 20 0 32 -7 39 -22z m-597
-229 c0 -36 -12 -49 -46 -49 -19 0 -34 5 -34 11 0 6 -10 9 -22 7 -32 -4 -29
-60 3 -88 l24 -19 -22 -1 c-12 0 -28 -7 -37 -15 -8 -8 -18 -15 -23 -15 -10 0
-63 55 -63 65 0 14 -43 45 -61 45 -10 0 -35 -16 -55 -35 -31 -30 -37 -33 -50
-21 -39 40 15 86 101 86 25 0 45 5 45 10 0 6 16 10 36 10 26 0 37 5 41 18 2 9
23 26 46 37 l42 21 38 -24 c20 -14 37 -33 37 -43z m1755 -314 c12 -3 32 -25
48 -54 24 -45 25 -52 11 -66 -8 -8 -18 -15 -22 -15 -75 -5 -116 -11 -127 -20
-22 -19 -36 81 -14 105 5 5 9 19 9 30 0 36 6 37 95 20z m-1206 -177 c43 1 43
1 23 -14 -16 -11 -22 -25 -22 -55 0 -35 -3 -39 -24 -39 -14 0 -28 -4 -31 -10
-11 -19 -108 -11 -144 11 -63 38 -65 45 -28 73 26 20 46 26 85 26 28 0 54 5
57 11 4 6 14 7 24 3 9 -5 36 -7 60 -6z m-1953 -47 c39 -24 48 -54 24 -81 -14
-16 -29 -20 -84 -20 -65 0 -66 0 -66 27 0 29 54 91 80 92 8 1 29 -8 46 -18z
m1804 -151 c55 -10 90 -38 90 -71 0 -10 5 -21 10 -24 6 -3 10 -17 10 -31 0
-17 -5 -24 -20 -24 -11 0 -20 5 -20 10 0 6 -9 10 -20 10 -11 0 -20 -4 -20 -10
0 -5 -8 -10 -18 -10 -10 0 -24 -9 -32 -20 -22 -30 -38 -25 -36 13 2 17 -1 37
-5 42 -4 6 -14 29 -22 52 -12 37 -12 43 2 56 20 19 18 19 81 7z m-1935 -140
c9 -14 45 -12 45 3 0 23 40 -53 52 -100 12 -48 46 -93 70 -93 8 0 20 9 28 20
8 11 22 20 32 20 21 0 24 16 6 23 -7 3 -1 6 14 6 23 1 58 -21 58 -35 0 -13
-31 -34 -49 -34 -12 0 -21 -4 -21 -10 0 -5 -13 -10 -30 -10 -16 0 -30 -5 -30
-12 0 -6 -8 -1 -19 10 -19 23 -51 30 -51 12 0 -5 -4 -10 -10 -10 -5 0 -10 9
-10 20 0 13 -7 20 -20 20 -11 0 -20 -4 -20 -10 0 -15 -70 -12 -86 4 -22 23
-17 26 42 26 40 0 54 3 51 13 -2 7 -17 11 -35 9 -27 -3 -32 0 -32 17 0 12 -4
21 -10 21 -5 0 -10 7 -10 15 0 8 -5 24 -12 34 -9 15 -9 23 1 35 15 18 37 21
46 6z m4015 -180 c0 -5 9 -10 20 -10 13 0 20 -7 20 -20 0 -11 5 -20 10 -20 6
0 10 -13 10 -30 0 -16 5 -30 10 -30 6 0 10 14 10 30 0 19 5 30 14 30 18 0 26
-22 26 -72 0 -29 6 -46 21 -59 13 -12 19 -25 15 -35 -6 -15 -9 -14 -25 5 -10
12 -39 27 -62 35 -40 11 -44 15 -42 42 0 16 -1 23 -4 17 -6 -17 -85 -17 -101
-1 -10 10 -15 10 -22 -1 -16 -26 -40 12 -40 63 l0 46 60 0 c33 0 60 4 60 10 0
6 5 10 10 10 6 0 10 -4 10 -10z m67 -310 c7 0 13 5 13 10 0 6 7 10 16 10 13 0
13 -4 -3 -30 -9 -16 -25 -30 -35 -30 -10 0 -18 -4 -18 -10 0 -5 -15 -10 -34
-10 -26 0 -36 -5 -41 -20 -3 -11 -11 -20 -16 -20 -13 0 -11 9 7 27 17 18 15
54 -3 61 -8 2 -13 -5 -13 -18 0 -13 -8 -24 -18 -27 -10 -2 -24 -17 -31 -34
-12 -28 -51 -42 -51 -18 0 6 -9 8 -22 4 -19 -5 -20 -4 -8 5 11 9 12 13 3 17
-7 2 -13 13 -13 23 0 10 -6 20 -12 23 -7 2 -9 8 -5 13 5 5 18 -2 29 -16 14
-16 22 -21 25 -12 3 6 16 12 30 12 15 0 27 7 30 18 2 9 32 31 66 49 l62 31 14
-29 c8 -16 21 -29 28 -29z m-3412 -246 c32 -22 45 -25 82 -19 24 3 43 3 43 -2
-1 -27 -112 -64 -126 -42 -8 14 -100 1 -144 -20 -34 -17 -80 -17 -80 -1 0 4
-9 10 -20 13 -11 3 -20 12 -20 21 0 23 39 20 65 -4 19 -18 26 -19 51 -10 38
15 64 39 58 54 -4 11 26 33 47 35 3 1 23 -11 44 -25z m1455 -90 c21 -21 23
-26 10 -34 -8 -5 -27 -10 -42 -10 -18 0 -28 -5 -28 -14 0 -8 -10 -18 -22 -22
-21 -6 -21 -7 -3 -20 10 -8 29 -14 42 -14 13 0 23 -4 23 -10 0 -5 25 -10 56
-10 30 0 63 -4 73 -10 12 -6 48 -6 102 0 81 9 84 9 138 -20 30 -17 63 -30 73
-30 20 0 25 -19 6 -21 -7 -1 -20 -3 -28 -4 -8 -1 -26 -3 -40 -4 -14 -2 -19 -5
-12 -8 14 -6 16 -43 2 -43 -5 0 -10 -4 -10 -9 0 -5 23 -9 50 -9 49 0 50 1 30
18 -35 30 -24 40 41 40 57 0 60 -1 57 -22 -3 -20 1 -23 26 -21 16 1 33 8 37
15 6 9 12 3 20 -19 12 -37 28 -41 64 -17 22 14 24 14 35 -6 10 -19 18 -21 66
-17 36 3 54 1 55 -7 0 -7 2 -6 6 2 10 25 25 12 20 -17 -4 -21 -2 -31 9 -35 12
-5 13 -8 2 -19 -9 -11 -19 -11 -42 -3 -22 8 -30 8 -33 -1 -5 -15 -43 -18 -43
-3 0 6 -8 10 -17 10 -17 1 -17 1 -1 13 16 12 15 15 -7 41 l-23 27 -44 -21
c-25 -12 -44 -16 -46 -10 -2 5 -12 10 -23 10 -10 0 -19 5 -19 10 0 6 -9 10
-20 10 -11 0 -20 -4 -20 -9 0 -5 -10 -11 -22 -14 -32 -9 -13 -21 27 -19 19 2
35 -2 35 -8 0 -5 14 -10 30 -10 23 0 30 -5 30 -19 0 -12 12 -24 30 -32 16 -8
35 -27 42 -43 l12 -29 17 22 c10 12 19 27 22 34 5 16 37 -16 37 -37 0 -9 7
-16 15 -16 8 0 15 -4 15 -10 0 -5 7 -10 15 -10 21 0 19 -18 -5 -32 -11 -7 -20
-16 -20 -20 0 -14 60 -9 61 5 0 10 2 10 6 0 6 -15 93 -18 93 -3 0 6 18 10 40
10 31 0 40 -4 40 -17 0 -13 3 -14 11 -6 6 6 18 9 25 6 8 -3 14 0 14 6 0 14 57
15 65 1 3 -5 13 -10 22 -10 13 0 13 3 3 15 -19 23 -4 30 33 17 51 -18 77 -15
77 8 0 11 -4 20 -10 20 -5 0 -10 -4 -10 -10 0 -5 -9 -10 -20 -10 -11 0 -20 5
-20 10 0 6 -9 10 -20 10 -11 0 -20 5 -20 10 0 6 -7 10 -15 10 -8 0 -15 -4 -15
-10 0 -5 -9 -10 -20 -10 -11 0 -20 -4 -20 -10 0 -5 -16 -10 -35 -10 -19 0 -35
5 -35 10 0 6 -18 10 -41 10 -22 0 -47 7 -55 15 -13 13 -12 18 12 42 22 22 30
24 44 15 10 -6 20 -8 22 -4 5 13 74 52 92 52 9 0 19 6 22 14 3 8 18 16 35 20
21 4 29 11 29 26 0 16 7 20 30 20 17 0 30 -4 30 -8 0 -14 -23 -32 -40 -32 -9
0 -22 -11 -28 -25 -7 -14 -17 -22 -25 -20 -7 3 -24 -6 -37 -20 -20 -22 -22
-28 -10 -35 10 -6 17 -4 23 5 4 8 15 15 22 15 8 0 15 5 15 10 0 6 7 10 16 10
9 0 22 7 29 16 6 9 29 23 51 30 36 13 40 12 56 -6 21 -26 48 -26 48 0 0 17 7
20 50 20 28 0 50 -4 50 -10 0 -5 -4 -10 -10 -10 -5 0 -10 -4 -10 -10 0 -5 9
-10 19 -10 11 0 23 5 26 10 9 14 52 12 58 -2 4 -10 8 -10 15 1 9 12 13 12 26
-2 21 -21 20 -27 -4 -27 -11 0 -20 -4 -20 -10 0 -5 -9 -10 -20 -10 -13 0 -20
7 -20 20 0 13 -7 20 -20 20 -11 0 -20 -4 -20 -10 0 -5 -11 -10 -25 -10 -22 0
-25 -3 -19 -26 4 -17 2 -29 -7 -35 -7 -4 -10 -12 -5 -16 5 -4 11 -2 13 5 3 6
18 12 34 12 16 0 29 5 29 10 0 6 9 10 20 10 11 0 20 -4 20 -10 0 -5 9 -10 20
-10 11 0 20 5 20 11 0 7 7 8 18 4 30 -13 84 -14 102 -2 13 8 31 8 65 0 38 -9
48 -8 52 4 3 7 -5 22 -17 33 -13 11 -19 20 -14 20 6 0 15 -5 20 -10 12 -12 44
-3 44 11 0 5 -7 9 -15 9 -8 0 -15 4 -15 9 0 5 -9 13 -20 16 -13 4 -20 15 -20
31 0 17 -5 24 -20 24 -11 0 -20 7 -20 15 0 15 32 21 91 16 15 -1 33 5 41 13 8
8 39 17 69 21 47 6 57 4 73 -14 16 -18 17 -22 3 -36 -9 -8 -27 -15 -40 -15
-14 0 -28 -6 -30 -12 -3 -7 -6 2 -6 20 -1 36 -16 43 -26 11 -5 -15 -13 -19
-27 -16 -28 8 -73 -13 -56 -25 10 -8 10 -11 1 -15 -21 -8 -15 -17 18 -32 26
-11 35 -11 57 0 15 8 30 18 34 24 5 6 12 5 20 -3 6 -6 22 -12 35 -12 13 0 23
-4 23 -10 0 -5 -9 -10 -20 -10 -11 0 -20 -4 -20 -10 0 -5 -13 -10 -30 -10 -16
0 -30 5 -30 10 0 6 -5 10 -11 10 -6 0 -8 -8 -4 -19 4 -13 0 -23 -12 -30 -15
-9 -13 -10 15 -11 17 0 32 5 32 10 0 6 11 10 25 10 42 0 76 21 73 45 -6 46 45
70 93 44 16 -8 24 -7 38 10 10 12 33 21 59 24 23 2 45 6 48 10 4 4 16 4 28 1
25 -6 175 -23 261 -30 56 -4 59 -3 40 11 -11 8 -25 13 -32 11 -7 -3 -26 -1
-41 5 -29 12 -154 31 -213 33 -21 1 -46 9 -58 20 -16 15 -24 17 -33 8 -13 -13
-68 -16 -68 -4 0 11 -60 32 -91 32 -14 0 -29 4 -35 9 -5 5 -18 11 -28 13 -16
2 -1 22 72 96 81 81 95 91 112 82 11 -6 106 -39 212 -74 106 -35 204 -68 218
-74 14 -6 54 -20 90 -31 85 -26 213 -73 273 -100 27 -11 55 -21 63 -21 8 0 34
-9 56 -20 23 -11 48 -20 55 -20 7 0 13 -4 13 -10 0 -5 9 -10 20 -10 11 0 20
-4 20 -10 0 -5 7 -10 15 -10 8 0 23 -4 33 -10 9 -5 49 -23 87 -40 39 -18 78
-36 87 -41 10 -5 27 -9 38 -9 11 0 20 -4 20 -10 0 -5 7 -10 15 -10 8 0 15 -4
15 -8 0 -5 16 -14 35 -22 19 -8 35 -17 35 -22 0 -4 7 -8 16 -8 9 0 28 -8 42
-18 15 -11 42 -25 60 -33 17 -8 32 -17 32 -21 0 -5 5 -8 11 -8 30 0 69 -74 69
-133 0 -30 -8 -56 -27 -85 -15 -23 -31 -42 -36 -42 -5 0 -30 -21 -56 -47 -51
-52 -82 -73 -106 -73 -8 0 -23 -4 -33 -10 -16 -9 -247 -39 -356 -46 -27 -2
-52 -7 -55 -12 -17 -25 -63 -35 -171 -37 -65 -1 -141 -9 -175 -18 -33 -9 -109
-18 -170 -21 -139 -7 -239 -26 -242 -46 -5 -30 24 -51 74 -54 26 -2 77 -10
113 -19 68 -16 82 -15 62 5 -18 18 -15 58 4 58 30 0 84 -38 84 -59 0 -6 5 -11
10 -11 6 0 10 -14 10 -31 0 -17 7 -38 16 -46 15 -15 94 -36 103 -27 5 5 -39
44 -49 44 -4 0 -17 9 -30 20 l-23 20 24 21 c20 18 33 20 84 16 88 -6 155 -44
155 -86 0 -13 8 -22 23 -25 65 -15 97 -5 97 29 0 24 17 35 56 35 13 0 76 -27
139 -60 99 -52 118 -58 138 -49 20 9 33 6 81 -21 31 -18 58 -36 61 -40 3 -4
30 -16 60 -25 30 -10 55 -23 55 -31 0 -7 6 -14 13 -17 6 -2 -7 -7 -30 -11
l-42 -8 24 -24 c13 -13 29 -24 34 -24 6 0 15 -9 21 -20 12 -23 40 -26 58 -8
10 10 15 10 22 -2 5 -8 12 -11 16 -7 11 11 -27 36 -54 37 -21 0 -41 24 -29 36
4 4 54 6 110 4 19 -1 24 -35 7 -45 -16 -10 27 -43 70 -55 20 -5 47 -19 60 -30
13 -11 26 -20 30 -20 4 0 17 -8 28 -19 17 -14 22 -30 22 -70 0 -43 -5 -56 -30
-83 -16 -17 -30 -35 -30 -40 0 -15 -68 -78 -85 -78 -8 0 -15 -4 -15 -10 0 -5
-11 -10 -25 -10 -14 0 -25 -4 -25 -10 0 -5 -5 -10 -11 -10 -7 0 -19 -9 -28
-19 -15 -17 -35 -20 -147 -25 -130 -5 -234 -15 -234 -22 0 -2 9 -21 20 -41 29
-55 34 -94 16 -136 -15 -37 -66 -77 -98 -77 -10 0 -19 -3 -19 -7 -1 -5 -3 -17
-4 -28 -5 -41 -34 -94 -62 -111 -41 -27 -85 -73 -78 -84 3 -6 15 -10 25 -10
30 0 63 -57 68 -117 4 -47 0 -64 -31 -126 -38 -77 -54 -97 -107 -137 -18 -14
-38 -30 -44 -35 -6 -6 -40 -26 -76 -44 -36 -19 -66 -38 -68 -43 -2 -4 -12 -8
-23 -8 -10 0 -19 -4 -19 -9 0 -5 -15 -14 -32 -21 -70 -25 -128 -54 -128 -62 0
-4 -9 -8 -20 -8 -11 0 -20 -4 -20 -10 0 -5 -13 -10 -30 -10 -16 0 -30 -4 -30
-10 0 -5 -9 -10 -20 -10 -11 0 -20 -4 -20 -10 0 -5 -9 -10 -20 -10 -11 0 -20
-4 -20 -10 0 -5 -9 -10 -20 -10 -11 0 -20 -4 -20 -10 0 -5 -9 -10 -20 -10 -11
0 -20 -4 -20 -10 0 -5 -11 -10 -25 -10 -14 0 -25 -4 -25 -10 0 -5 -7 -10 -15
-10 -8 0 -15 -4 -15 -10 0 -5 -16 -10 -36 -10 -35 0 -64 -18 -64 -40 0 -16
-26 -40 -44 -40 -8 0 -18 -4 -21 -10 -3 -5 -22 -10 -41 -10 -19 0 -34 -4 -34
-10 0 -5 -7 -10 -15 -10 -8 0 -24 -4 -35 -10 -11 -5 -29 -14 -40 -20 -11 -5
-34 -10 -52 -10 -55 -1 -120 -20 -138 -40 -10 -11 -24 -20 -33 -20 -9 0 -19
-4 -22 -10 -3 -5 -16 -10 -29 -10 -23 0 -57 -31 -69 -64 -6 -15 -14 -17 -40
-11 -63 13 -157 17 -157 6 0 -6 -9 -11 -20 -11 -11 0 -20 -6 -20 -13 0 -7 -9
-19 -20 -27 -11 -8 -20 -19 -20 -25 0 -18 -64 -52 -121 -65 -48 -11 -61 -10
-118 9 -82 27 -84 27 -171 -9 -40 -16 -78 -30 -85 -30 -7 0 -30 -9 -52 -19
-35 -18 -129 -49 -243 -81 -25 -7 -70 -21 -100 -32 -30 -10 -109 -37 -175 -59
-66 -22 -121 -45 -123 -50 -2 -5 -12 -9 -23 -9 -10 0 -19 -4 -19 -9 0 -4 -42
-11 -92 -14 -61 -3 -112 -13 -148 -27 -57 -23 -104 -32 -155 -32 -32 1 -64 -9
-132 -39 -24 -11 -46 -19 -50 -19 -5 0 -22 -12 -38 -28 -40 -35 -70 -52 -94
-52 -11 0 -23 -4 -26 -10 -3 -5 -35 -10 -71 -10 -36 0 -64 4 -64 10 0 6 -11
10 -24 10 -29 0 -116 -82 -116 -110 0 -10 -4 -22 -10 -25 -14 -9 -12 -42 3
-48 6 -2 9 -8 5 -12 -5 -5 -16 2 -27 13 -23 27 -86 31 -95 6 -11 -28 4 -36 52
-29 32 5 47 3 54 -7 7 -10 11 -10 15 0 2 6 13 12 24 12 10 0 19 5 19 10 0 6
-4 10 -10 10 -21 0 -9 16 23 28 17 7 40 18 49 23 23 12 68 12 68 0 0 -5 -7
-16 -15 -25 -21 -20 -19 -26 10 -26 14 0 25 5 25 10 0 6 6 10 14 10 7 0 19 14
26 30 9 22 19 30 37 30 17 0 27 7 30 20 4 16 8 18 19 9 10 -8 14 -8 14 0 0 6
11 11 25 11 14 0 25 6 25 13 0 9 3 8 9 -2 7 -11 13 -11 32 -1 20 11 25 10 44
-14 11 -14 26 -26 32 -26 18 0 25 18 14 37 -6 10 -11 12 -11 6 0 -7 -7 -13
-16 -13 -36 0 -4 25 39 30 44 6 47 4 42 -15 -3 -11 -2 -14 1 -7 3 6 14 12 24
12 10 0 20 6 23 13 4 10 7 10 18 0 23 -22 42 -16 35 11 -7 29 9 43 29 26 11
-9 15 -9 15 -1 0 6 9 11 19 11 11 0 21 6 24 13 4 10 7 10 18 0 20 -20 59 -16
59 5 0 22 71 47 82 29 6 -9 10 -9 16 -1 10 16 80 25 84 12 3 -7 15 -8 31 -4
22 5 27 12 27 36 0 27 3 30 33 32 17 0 43 0 57 -1 14 -2 53 0 88 4 57 6 62 8
62 31 0 19 5 24 24 24 13 0 27 -7 30 -16 4 -10 12 -14 22 -10 27 10 73 50 73
64 1 12 19 16 53 13 10 -1 38 10 64 25 25 15 56 28 67 30 75 10 90 14 119 28
17 9 37 16 44 16 7 0 20 10 28 21 14 20 21 21 89 15 68 -6 76 -5 111 19 20 14
43 25 51 25 18 0 129 42 136 52 3 4 44 9 92 9 59 1 91 6 98 15 7 8 21 11 34 8
26 -6 83 20 92 42 6 16 43 20 43 4 0 -18 29 -10 57 16 41 38 72 48 93 29 17
-16 70 -21 70 -7 0 5 18 14 41 21 40 12 41 12 34 52 -6 33 -4 39 10 39 11 0
15 -5 12 -15 -11 -28 12 -25 33 5 12 16 17 30 11 30 -6 0 -11 5 -11 10 0 6 15
10 33 10 19 0 42 8 55 20 12 11 30 20 42 20 11 0 28 4 38 9 9 5 32 16 50 23
17 7 32 16 32 20 0 5 7 8 15 8 8 0 15 5 15 10 0 6 9 10 19 10 11 0 23 5 26 10
3 6 17 10 31 10 13 0 24 5 24 10 0 6 17 10 38 10 26 0 42 6 52 20 8 11 22 20
32 20 10 0 18 5 18 10 0 6 47 10 120 10 73 0 120 -4 120 -10 0 -6 27 -10 60
-10 33 0 60 -4 60 -10 0 -5 23 -10 50 -10 28 0 50 -4 50 -10 0 -5 13 -10 29
-10 17 0 33 -4 36 -10 3 -5 28 -10 55 -10 27 0 52 -4 55 -10 3 -5 34 -10 69
-10 48 0 67 -4 84 -20 12 -11 32 -20 46 -20 14 0 28 -4 31 -10 3 -5 28 -10 56
-10 27 0 49 -4 49 -10 0 -5 9 -10 20 -10 11 0 20 -4 20 -10 0 -5 14 -10 30
-10 17 0 30 -4 30 -10 0 -5 15 -10 33 -10 28 0 49 -8 139 -52 10 -4 25 -8 33
-8 8 0 15 -4 15 -10 0 -5 15 -10 33 -10 17 0 56 -9 85 -20 29 -11 63 -20 77
-20 14 0 25 -4 25 -10 0 -5 9 -10 20 -10 11 0 20 -3 20 -8 0 -4 21 -18 48 -32
55 -29 92 -63 92 -85 0 -8 5 -15 10 -15 6 0 10 -13 10 -29 0 -17 5 -33 11 -37
10 -6 9 -22 -7 -103 -5 -23 -27 -54 -70 -98 -35 -34 -69 -63 -77 -63 -7 0 -19
-9 -27 -20 -8 -11 -22 -20 -32 -20 -10 0 -18 -4 -18 -10 0 -5 -13 -10 -30 -10
-16 0 -30 -4 -30 -10 0 -5 -9 -10 -20 -10 -11 0 -20 -4 -20 -10 0 -5 -9 -10
-20 -10 -11 0 -20 -4 -20 -10 0 -5 -14 -10 -30 -10 -36 0 -110 -22 -110 -32 0
-5 -9 -8 -20 -8 -11 0 -20 -4 -20 -10 0 -5 -13 -10 -28 -10 -15 0 -32 -4 -38
-8 -5 -5 -36 -14 -69 -21 -33 -7 -69 -17 -80 -21 -11 -5 -35 -14 -52 -22 -18
-7 -33 -16 -33 -20 0 -5 -11 -8 -25 -8 -14 0 -25 -3 -25 -7 0 -9 -49 -33 -67
-33 -7 0 -13 -4 -13 -10 0 -5 -7 -10 -15 -10 -8 0 -15 -4 -15 -10 0 -5 -7 -10
-15 -10 -8 0 -15 -4 -15 -10 0 -5 -9 -10 -20 -10 -11 0 -20 -4 -20 -10 0 -5
-7 -10 -15 -10 -8 0 -15 -4 -15 -10 0 -5 -9 -10 -20 -10 -11 0 -20 -4 -20 -10
0 -5 -11 -10 -25 -10 -14 0 -25 -4 -25 -10 0 -5 -9 -10 -20 -10 -11 0 -20 -4
-20 -10 0 -5 -13 -10 -30 -10 -16 0 -30 -4 -30 -10 0 -5 -9 -10 -20 -10 -11 0
-20 -4 -20 -10 0 -5 -7 -10 -16 -10 -25 0 -44 -26 -44 -59 0 -41 -18 -78 -41
-84 -11 -3 -19 -12 -19 -21 0 -10 -9 -16 -25 -16 -15 0 -40 -7 -57 -16 -29
-15 -41 -23 -71 -50 -7 -6 -30 -13 -52 -17 -28 -4 -35 -3 -25 3 28 18 -8 29
-49 16 -26 -9 -37 -20 -40 -37 -4 -34 -16 -39 -102 -39 -68 0 -77 2 -82 20 -5
20 -27 28 -27 10 0 -5 5 -10 11 -10 5 0 7 -4 4 -10 -3 -5 -21 -10 -40 -10 -19
0 -37 -4 -40 -10 -3 -5 -23 -10 -44 -10 -20 0 -41 -4 -47 -10 -5 -5 -91 -12
-189 -15 -174 -5 -220 -10 -295 -34 -19 -6 -70 -13 -113 -16 -42 -2 -85 -8
-95 -13 -9 -5 -87 -13 -172 -17 -171 -8 -171 -8 -218 -3 -18 3 -37 -1 -43 -8
-5 -6 -31 -17 -57 -24 -26 -6 -58 -16 -72 -21 -43 -16 -232 -26 -315 -18 -44
4 -84 4 -90 0 -5 -5 -29 -12 -53 -16 -24 -4 -46 -13 -49 -21 -4 -11 -9 -12
-19 -3 -10 8 -14 8 -14 0 0 -6 -13 -11 -30 -11 -16 0 -30 -4 -30 -10 0 -13
-66 -13 -92 1 -13 7 -23 8 -27 1 -3 -5 -55 -12 -116 -15 -60 -4 -126 -9 -145
-12 -30 -5 -33 -4 -19 7 10 8 18 33 20 57 l4 44 -235 1 -235 1 -42 -34 c-24
-19 -43 -39 -43 -44 0 -5 21 -6 48 -3 26 3 55 6 65 6 9 1 17 8 17 16 0 8 5 14
10 14 6 0 10 -4 10 -9 0 -5 10 -12 23 -14 19 -4 18 -4 -5 -6 -16 0 -28 -5 -28
-9 0 -14 -71 -30 -137 -30 -34 -1 -86 -8 -115 -17 -29 -9 -93 -23 -143 -31
-105 -16 -187 -32 -231 -45 -17 -5 -58 -9 -92 -9 -34 0 -62 -4 -62 -8 0 -12
-82 -12 -97 0 -21 17 -89 13 -108 -6 -28 -27 -84 -46 -138 -46 -40 0 -63 7
-104 32 -29 18 -53 36 -53 40 0 5 -214 8 -475 7 -446 0 -623 7 -766 31 -30 6
-83 10 -117 10 -35 0 -62 4 -62 10 0 6 -31 10 -74 10 -58 0 -75 3 -80 16 -3 8
-14 14 -23 12 -10 -1 -24 1 -32 6 -7 5 -53 8 -102 7 -57 -1 -89 2 -89 8 0 6
-9 11 -20 11 -11 0 -20 7 -20 15 0 8 -4 15 -10 15 -5 0 -10 -7 -10 -15 0 -8
-4 -15 -10 -15 -5 0 -10 7 -10 16 0 13 -7 15 -30 10 -21 -4 -30 -2 -30 8 0 10
-13 12 -50 8 -36 -3 -50 -1 -50 8 0 8 -9 11 -27 7 -34 -6 -53 1 -53 20 0 13
-9 15 -46 9 -25 -3 -50 -1 -57 4 -49 41 -60 47 -77 43 -11 -3 -20 -1 -20 5 0
15 -69 36 -107 33 -18 -1 -33 2 -33 7 0 11 -95 31 -173 36 -32 2 -61 6 -64 10
-3 3 -12 1 -20 -5 -9 -8 -13 -8 -13 -1 0 6 -10 20 -22 32 -24 22 -84 28 -90 8
-3 -8 -18 -6 -51 10 -26 12 -51 22 -57 22 -5 0 -10 5 -10 10 0 6 -5 10 -10 10
-6 0 -21 9 -33 20 -12 12 -23 16 -25 10 -2 -5 -21 -10 -43 -10 -28 0 -39 -4
-39 -15 0 -19 -14 -19 -30 0 -8 9 -30 15 -59 15 -35 0 -50 5 -61 20 -16 22
-46 27 -53 8 -2 -8 -16 -1 -35 20 -29 31 -33 32 -48 18 -20 -20 -34 -20 -34
-1 0 8 -4 15 -10 15 -5 0 -10 14 -10 30 0 17 -4 30 -10 30 -5 0 -10 -9 -10
-20 0 -19 -10 -24 -37 -21 -18 2 -83 69 -83 85 0 8 -5 16 -12 18 -7 3 -9 14
-4 31 6 27 8 27 89 27 71 0 85 3 97 20 12 16 26 20 77 20 35 0 63 -4 63 -10 0
-15 30 -12 30 3 0 6 6 3 12 -8 16 -28 58 -68 58 -55 0 5 15 10 34 10 28 0 36
-5 46 -30 8 -18 20 -30 31 -30 11 0 19 -4 19 -10 0 -5 9 -10 20 -10 11 0 20
-4 20 -10 0 -5 23 -10 50 -10 28 0 50 5 50 10 0 6 9 10 20 10 13 0 20 7 20 20
0 16 7 20 35 20 19 0 35 -4 35 -10 0 -5 12 -10 26 -10 14 0 23 -4 19 -10 -3
-5 -15 -10 -26 -10 -10 0 -19 -4 -19 -10 0 -5 -11 -10 -24 -10 -13 0 -26 -6
-29 -12 -3 -10 -7 -10 -20 1 -15 12 -17 11 -17 -7 0 -24 25 -36 43 -19 23 21
56 37 77 37 11 0 20 5 20 10 0 6 7 10 15 10 8 0 15 -4 15 -10 0 -5 16 -10 35
-10 19 0 35 -4 35 -10 0 -5 9 -10 20 -10 13 0 20 -7 20 -19 0 -16 7 -19 52
-18 32 1 53 -4 56 -11 4 -14 62 -16 62 -2 0 6 18 10 40 10 29 0 40 4 40 15 0
19 30 32 39 17 4 -6 65 -12 156 -14 83 -2 158 -8 168 -12 12 -6 17 -4 17 9 0
9 6 23 14 31 17 16 66 19 66 4 0 -5 23 -10 50 -10 45 0 50 -2 50 -22 1 -20 2
-21 10 -6 8 12 19 15 50 11 26 -4 40 -2 40 6 0 6 11 11 25 11 14 0 25 5 25 10
0 6 7 10 15 10 8 0 15 -4 15 -10 0 -14 37 -12 44 3 3 6 3 2 0 -10 -7 -30 22
-31 47 -1 l19 21 -6 -31 c-6 -29 -4 -32 20 -32 14 0 26 -4 26 -10 0 -15 30
-12 31 3 0 10 2 10 6 0 7 -20 31 -15 43 7 9 17 14 18 31 9 15 -8 24 -8 32 0
17 17 54 13 62 -6 6 -17 7 -17 16 0 6 9 17 17 24 17 8 0 15 5 15 10 0 6 11 10
25 10 20 0 27 6 32 30 6 32 26 39 49 16 21 -21 17 -46 -6 -46 -13 0 -20 -7
-20 -20 0 -16 7 -20 30 -20 26 0 30 4 30 26 0 34 22 54 59 54 29 0 30 -2 25
-30 l-6 -30 51 0 c28 0 51 -4 51 -10 0 -5 14 -10 30 -10 27 0 30 3 30 30 0 23
-4 30 -20 30 -19 0 -27 19 -14 33 11 11 54 -42 54 -68 0 -18 5 -25 20 -25 11
0 20 5 20 10 0 15 58 12 62 -2 3 -9 10 -8 23 5 9 10 24 16 32 13 17 -7 43 16
43 38 0 10 9 16 21 16 18 0 19 -3 9 -15 -22 -27 -4 -45 45 -45 28 0 45 4 45
12 0 9 3 9 12 0 12 -12 68 -17 68 -6 0 10 -28 34 -39 34 -6 0 -11 9 -11 20 0
16 7 20 35 20 19 0 35 -4 35 -10 0 -5 -4 -10 -10 -10 -5 0 -10 -4 -10 -9 0 -9
45 2 81 19 8 4 41 8 73 9 32 0 65 6 74 13 12 10 16 10 19 1 5 -15 33 -18 33
-4 0 5 9 11 20 14 13 3 18 10 14 21 -4 11 -1 16 11 16 12 0 15 -5 10 -20 -7
-22 5 -26 23 -8 9 9 12 9 12 0 0 -15 19 -15 53 1 25 11 38 47 17 47 -5 0 -10
-5 -10 -12 0 -6 -2 -9 -5 -6 -3 3 -3 13 1 22 7 19 34 22 35 4 0 -10 2 -10 6 0
2 6 14 12 25 12 14 0 18 -5 14 -15 -3 -8 -3 -22 0 -30 7 -17 34 -21 34 -5 0 6
14 10 31 10 27 0 59 19 59 34 0 3 -9 6 -20 6 -11 0 -20 -4 -20 -10 0 -5 -7
-10 -15 -10 -8 0 -15 9 -15 20 0 15 7 20 29 20 16 0 32 6 34 13 3 6 6 2 6 -10
1 -29 37 -31 46 -3 6 20 35 28 35 10 0 -14 37 -12 44 3 5 10 7 10 12 0 7 -15
44 -18 44 -4 0 5 -6 11 -12 14 -7 2 -9 8 -5 13 4 5 13 2 18 -6 8 -11 12 -12
16 -2 8 20 43 14 43 -8 0 -11 5 -20 10 -20 6 0 10 5 10 10 0 6 14 10 30 10 17
0 30 -4 30 -10 0 -5 14 -10 30 -10 29 0 30 2 30 45 0 35 6 52 25 70 29 30 35
31 35 5 0 -15 7 -20 24 -20 14 0 28 -4 31 -10 3 -5 1 -10 -4 -10 -6 0 -11 -4
-11 -9 0 -6 18 -9 40 -8 37 1 40 4 40 29 0 15 -4 28 -10 28 -5 0 -10 7 -10 17
0 21 -47 83 -63 83 -7 0 -19 9 -27 20 -15 21 -50 28 -50 10 0 -5 -13 -10 -30
-10 -16 0 -30 -5 -30 -11 0 -7 -16 -9 -47 -5 -27 3 -55 6 -63 7 -37 1 -130
-29 -130 -43 0 -5 -13 -8 -30 -8 -16 0 -30 -4 -30 -10 0 -5 -9 -10 -20 -10
-11 0 -20 -4 -20 -10 0 -5 -7 -10 -15 -10 -8 0 -15 -4 -15 -10 0 -5 -7 -10
-15 -10 -8 0 -15 -4 -15 -10 0 -5 -23 -10 -50 -10 -28 0 -59 -4 -70 -10 -11
-6 -29 -14 -40 -20 -11 -6 -36 -10 -55 -10 -19 0 -35 -4 -35 -10 0 -6 -32 -10
-75 -10 -43 0 -75 -4 -75 -10 0 -5 -24 -10 -54 -10 -34 0 -57 -5 -60 -12 -5
-10 -7 -10 -12 0 -4 7 -27 12 -65 12 -33 0 -59 4 -59 10 0 6 -8 10 -18 10 -10
0 -24 9 -32 20 -8 11 -22 20 -32 20 -10 0 -18 5 -18 10 0 6 12 10 26 10 23 0
54 20 54 34 0 3 -22 6 -50 6 -27 0 -50 4 -50 9 0 9 -116 17 -405 27 -88 3
-164 10 -169 15 -6 5 -50 9 -98 9 -52 0 -88 4 -88 10 0 6 -8 5 -20 -2 -14 -9
-23 -10 -28 -2 -4 5 -70 16 -147 22 -77 7 -144 17 -149 22 -6 6 -27 10 -48 10
-21 0 -38 5 -38 10 0 6 -13 10 -30 10 -16 0 -30 5 -30 10 0 6 -11 10 -24 10
-14 0 -36 4 -50 9 -17 7 -26 7 -30 -2 -3 -9 -7 -9 -13 1 -5 7 -30 13 -56 14
-26 1 -47 5 -47 9 0 13 -53 29 -95 29 -24 0 -50 6 -57 13 -8 8 -34 13 -66 11
-29 0 -54 2 -57 6 -2 4 -21 7 -41 8 -21 1 -41 6 -44 12 -4 6 -21 12 -38 12
-17 1 -33 6 -36 13 -2 7 -24 15 -48 18 -24 3 -57 13 -72 21 -16 8 -34 12 -41
10 -7 -3 -15 2 -19 12 -5 13 -14 15 -42 9 -30 -5 -36 -4 -31 9 4 11 1 13 -11
9 -9 -4 -20 -11 -23 -16 -4 -6 -24 -2 -50 11 -24 11 -78 26 -119 32 -41 7 -90
22 -110 34 -63 39 -88 49 -105 42 -9 -3 -31 2 -48 11 -30 16 -46 20 -92 26
-34 5 -65 18 -65 28 0 5 -7 9 -15 9 -19 0 -113 47 -132 65 -7 8 -13 21 -13 29
0 9 -4 16 -10 16 -5 0 -10 -5 -10 -10 0 -6 -20 1 -43 15 -24 14 -52 25 -62 25
-15 0 -16 3 -7 12 7 7 12 21 12 33 -1 19 -1 19 -14 2 -13 -17 -15 -17 -23 -2
-6 10 -16 13 -26 9 -21 -8 -22 -24 -2 -24 8 0 15 -7 15 -15 0 -8 -3 -15 -7
-15 -13 0 -63 53 -63 67 0 7 -9 13 -20 13 -19 0 -23 8 -21 40 0 10 -1 11 -5 3
-7 -17 -22 -16 -40 1 -20 21 -20 126 1 126 8 0 15 -4 15 -10 0 -5 10 -10 23
-10 29 0 44 -11 48 -35 5 -24 39 -34 39 -11 0 21 53 21 74 0 20 -19 42 -20 85
-3 27 11 35 11 38 2 3 -7 19 -13 36 -13 31 0 98 -20 107 -31 3 -4 79 -13 170
-20 156 -12 190 -21 190 -47 0 -14 22 -21 51 -15 15 3 44 -5 73 -21 26 -14 64
-28 84 -32 21 -3 42 -12 48 -20 6 -8 26 -16 45 -18 19 -2 37 -4 41 -5 4 0 13
-8 22 -16 18 -19 95 -34 121 -25 11 4 25 4 30 0 17 -13 110 -29 133 -23 12 3
22 1 22 -4 0 -5 21 -15 48 -23 26 -7 52 -19 57 -26 8 -10 25 -11 70 -5 33 5
62 5 65 1 3 -4 28 -8 55 -8 99 -2 171 -10 210 -25 26 -10 44 -12 52 -6 8 7 13
4 18 -10 4 -13 18 -22 45 -26 22 -4 40 -10 40 -14 0 -12 116 -3 185 14 71 17
95 19 151 10 31 -5 48 -3 67 9 16 11 26 13 29 6 2 -6 12 -11 23 -11 59 1 168
10 230 19 39 6 95 9 125 7 61 -3 80 1 80 20 0 14 29 29 38 20 3 -3 0 -5 -6 -5
-7 0 -12 -15 -12 -35 0 -40 1 -40 39 -20 16 8 50 14 77 15 27 0 74 0 104 1 30
0 73 5 95 11 22 6 63 10 92 10 46 -1 52 2 57 24 7 25 21 30 46 14 9 -5 19 -5
27 2 9 7 13 7 13 0 0 -6 15 -11 33 -11 67 0 79 -1 99 -12 14 -8 23 -8 31 0 6
6 35 11 63 11 29 0 56 5 59 10 4 6 19 9 33 8 32 -2 52 8 52 25 0 13 11 15 94
17 37 1 60 9 99 35 38 26 54 32 68 24 31 -16 49 -11 49 16 0 14 5 25 10 25 6
0 10 -9 10 -20 0 -11 4 -20 8 -20 4 0 14 9 22 20 17 24 30 26 30 4 0 -11 6
-14 20 -9 11 4 20 2 20 -4 0 -15 115 -7 134 8 9 8 28 10 50 5 24 -4 36 -2 36
5 0 6 16 11 35 11 22 0 38 6 41 15 7 18 44 20 44 3 1 -8 6 -6 14 5 11 14 31
17 130 17 121 0 254 15 270 31 6 5 17 9 25 9 9 0 27 9 41 20 14 11 37 20 52
20 16 0 31 8 37 18 5 10 29 25 51 32 23 8 45 21 48 29 3 9 10 19 15 23 6 4 4
12 -6 22 -23 23 -38 20 -32 -6 7 -30 -13 -53 -49 -56 -15 -1 -48 -9 -72 -17
-25 -8 -51 -15 -58 -15 -8 0 -19 -7 -26 -15 -13 -15 -35 -11 -25 5 3 5 -6 20
-20 34 -27 27 -45 33 -45 16 0 -5 5 -10 10 -10 7 0 7 -6 0 -20 -6 -11 -20 -20
-30 -20 -23 0 -25 8 -6 24 19 15 31 56 16 56 -6 0 -24 -13 -40 -30 -16 -17
-34 -30 -40 -30 -5 0 -10 -6 -10 -13 0 -24 -25 -44 -60 -50 -19 -3 -29 -3 -22
0 21 8 13 20 -18 27 -16 3 -30 10 -30 16 0 18 27 40 49 40 12 0 21 5 21 10 0
6 7 10 15 10 8 0 15 5 15 10 0 13 -57 13 -65 0 -4 -7 -13 -7 -26 0 -23 13 -25
30 -4 30 8 0 15 5 15 10 0 6 23 10 50 10 28 0 50 -4 50 -10 0 -18 29 -10 35
10 7 22 40 27 48 8 4 -10 8 -10 15 1 7 9 12 10 16 2 4 -6 16 -11 27 -11 10 0
19 -4 19 -10 0 -15 32 -12 54 5 19 14 19 15 -2 34 -12 10 -22 21 -22 25 0 9
45 7 56 -3 17 -17 134 -18 134 -1 0 6 -28 10 -65 10 -37 0 -65 4 -65 10 0 6 8
10 18 10 10 0 23 5 30 12 9 9 12 9 12 0 0 -7 9 -12 20 -12 11 0 20 4 20 9 0
20 61 32 139 29 77 -3 81 -4 81 -26 0 -25 -28 -42 -39 -23 -6 9 -11 8 -20 -3
-7 -8 -10 -19 -7 -24 3 -5 -4 -18 -14 -30 -26 -28 -25 -32 6 -32 29 0 67 31
46 38 -6 2 -12 8 -12 13 0 13 78 11 82 -2 4 -13 123 -4 147 11 12 7 11 11 -3
26 -14 14 -19 15 -26 4 -7 -11 -11 -10 -25 3 -9 10 -20 17 -25 17 -5 0 -7 7
-3 16 4 12 8 12 13 3 9 -14 52 -5 74 16 8 8 22 15 30 15 9 0 16 5 16 10 0 6
13 10 29 10 16 0 31 6 34 13 2 6 8 9 12 5 11 -11 -42 -58 -65 -58 -20 0 -50
-21 -50 -34 0 -3 9 -6 20 -6 11 0 20 5 20 10 0 6 5 10 10 10 6 0 10 -9 10 -20
0 -13 7 -20 20 -20 11 0 20 5 20 10 0 6 -4 10 -10 10 -5 0 -10 5 -10 10 0 6 9
10 20 10 11 0 20 -4 20 -10 0 -18 35 -11 50 10 16 22 46 27 52 8 4 -10 8 -9
20 2 51 48 78 62 78 38 0 -6 9 -1 20 12 25 28 25 29 0 50 -12 11 -18 24 -14
34 9 23 27 20 19 -4 -6 -18 -2 -20 44 -20 28 0 51 5 51 10 0 6 30 10 70 10 40
0 70 4 70 10 0 6 15 10 34 10 19 0 36 5 38 10 5 15 81 16 86 2 5 -15 52 -16
52 -2 0 6 9 10 20 10 11 0 20 5 20 10 0 6 13 10 29 10 17 0 33 5 36 10 3 6 15
10 26 10 10 0 19 4 19 8 0 5 23 10 52 11 28 1 56 5 62 10 6 5 40 12 76 15 109
9 160 18 160 27 0 5 16 9 36 9 19 0 42 7 50 15 10 9 25 12 44 8 19 -3 30 -1
30 6 0 6 18 11 42 11 59 0 198 51 198 72 0 5 -81 8 -180 8 -113 0 -180 -4
-180 -10 0 -5 -13 -10 -30 -10 -16 0 -30 5 -30 11 0 7 -13 9 -37 5 -81 -13
-103 -14 -247 -16 -105 -1 -151 2 -156 10 -5 7 -10 8 -13 3 -8 -14 -249 -16
-257 -3 -7 11 -60 -9 -60 -22 0 -13 -78 -9 -82 3 -2 7 -17 3 -41 -10 -21 -12
-55 -21 -77 -21 -22 0 -40 -4 -40 -10 0 -5 -13 -10 -30 -10 -16 0 -30 -4 -30
-8 0 -4 -25 -8 -56 -9 -35 -1 -61 -7 -66 -15 -8 -10 -11 -10 -15 0 -2 6 -13
12 -23 12 -10 0 -21 -6 -23 -12 -4 -10 -8 -9 -16 2 -9 13 -12 13 -20 1 -11
-17 -93 -19 -99 -2 -6 17 -36 13 -51 -8 -14 -19 -15 -19 -49 1 -19 10 -41 26
-49 34 -19 18 -33 18 -33 -1 0 -8 -4 -15 -10 -15 -5 0 -10 5 -10 10 0 6 -6 10
-13 10 -18 0 -67 -24 -67 -32 0 -5 -9 -8 -20 -8 -11 0 -20 5 -20 10 0 6 5 10
10 10 6 0 10 5 10 10 0 6 -11 10 -24 10 -14 0 -28 -4 -31 -10 -9 -15 -34 -12
-52 6 -12 12 -13 18 -4 23 9 6 8 14 -3 35 -13 26 -15 27 -24 10 -5 -11 -7 -25
-5 -31 6 -15 -13 -17 -22 -3 -23 37 -134 -27 -120 -69 5 -18 2 -21 -20 -21
-22 0 -25 -3 -20 -20 5 -15 2 -20 -13 -20 -14 0 -21 9 -25 30 -7 34 -32 40
-42 10 -3 -11 -10 -20 -15 -20 -5 0 -11 -9 -15 -19 -11 -37 -115 -20 -115 18
0 6 9 2 20 -9 26 -26 40 -25 40 1 0 12 -8 23 -19 26 -11 3 -21 13 -24 24 -7
25 -37 24 -44 -1 -3 -11 -14 -20 -24 -20 -10 0 -21 -4 -24 -10 -3 -5 -15 -10
-26 -10 -10 0 -19 -4 -19 -10 0 -5 -9 -10 -19 -10 -11 0 -21 -6 -24 -12 -3
-10 -9 -10 -26 0 -29 17 -39 15 -67 -13 -14 -14 -29 -25 -34 -25 -6 0 -10 -11
-10 -25 0 -20 -5 -25 -26 -25 -15 0 -35 -10 -47 -22 -13 -16 -21 -19 -24 -10
-5 14 -43 16 -43 2 0 -5 -18 -10 -40 -10 -22 0 -40 5 -40 10 0 6 -9 10 -20 10
-11 0 -20 -4 -20 -10 0 -5 -8 -10 -18 -10 -10 0 -24 -9 -32 -20 -8 -11 -24
-20 -36 -20 -12 0 -24 -3 -26 -7 -9 -21 -204 -60 -348 -69 -47 -3 -89 -10 -94
-15 -14 -13 -54 -11 -59 4 -3 8 -13 4 -31 -12 -14 -14 -26 -19 -26 -13 0 14
-41 16 -56 3 -5 -4 -25 -11 -46 -14 -37 -6 -62 6 -71 33 -3 10 -7 6 -12 -12
-8 -31 -36 -44 -62 -29 -10 6 -12 11 -5 11 6 0 12 5 12 10 0 14 -27 13 -32 -1
-2 -7 -24 -11 -51 -11 -36 1 -53 7 -73 27 -13 14 -29 25 -34 25 -6 0 -10 6
-10 13 0 7 -9 19 -20 27 -12 8 -20 26 -20 42 0 15 -4 28 -10 28 -5 0 -10 9
-10 20 0 17 -7 20 -46 20 -44 0 -74 16 -74 39 0 6 -12 8 -30 5 -19 -4 -30 -2
-30 5 0 6 -13 11 -30 11 -23 0 -30 -4 -30 -20 0 -13 -7 -20 -20 -20 -11 0 -20
-4 -20 -10 0 -5 5 -10 10 -10 6 0 10 -9 10 -20 0 -13 -7 -20 -19 -20 -11 0
-23 -12 -31 -30 -12 -29 -30 -41 -30 -20 0 6 -4 10 -10 10 -5 0 -10 -15 -11
-32 0 -18 -3 -27 -6 -20 -6 15 -30 16 -35 0 -3 -8 -27 -12 -75 -10 -40 1 -74
-2 -77 -7 -9 -13 -46 -1 -46 15 0 16 -16 19 -25 4 -4 -6 -73 -10 -175 -10
-102 0 -171 4 -175 10 -3 6 -40 10 -81 10 -41 0 -74 3 -74 8 0 4 -34 8 -75 8
-64 1 -78 4 -94 22 -10 12 -30 22 -45 22 -14 0 -26 5 -26 10 0 6 -9 10 -20 10
-13 0 -20 7 -20 20 0 13 -7 20 -20 20 -14 0 -20 -7 -20 -24 0 -13 -3 -31 -6
-40 -9 -23 -34 -20 -34 4 0 18 -7 20 -65 20 -37 0 -65 4 -65 10 0 6 -6 10 -14
10 -21 0 -26 23 -19 82 5 40 13 59 32 75 14 13 29 23 33 23 3 0 11 14 17 31 7
22 15 29 26 25 10 -4 15 1 15 15 0 19 4 20 35 15 25 -5 40 -3 50 8 13 12 13
15 -1 20 -9 3 -27 6 -40 6 -13 0 -24 2 -24 4 0 2 -3 11 -6 20 -5 14 3 16 54
16 39 0 64 -5 71 -14 7 -8 21 -12 32 -9 12 3 25 0 29 -7 6 -9 13 -9 28 -1 26
14 52 14 52 1 0 -5 -13 -10 -30 -10 -34 0 -40 -21 -15 -47 14 -14 18 -13 34 6
10 12 26 21 35 21 9 0 16 8 16 19 0 16 7 20 40 19 23 0 49 -8 62 -19 13 -10
28 -22 33 -27 6 -4 17 -6 25 -4 9 1 36 -8 60 -21 45 -24 45 -24 79 -5 32 18
37 18 93 4 32 -8 65 -13 73 -10 7 3 20 -5 29 -18 14 -19 19 -21 35 -11 17 10
21 8 31 -18 15 -35 55 -41 65 -9 3 11 13 20 21 20 8 0 14 5 14 10 0 15 67 12
73 -3 2 -7 1 -34 -3 -60 -4 -29 -3 -47 3 -47 12 0 52 42 60 64 4 10 18 16 42
16 35 0 41 -8 36 -47 -1 -7 7 -13 19 -13 11 0 20 5 20 10 0 6 9 10 19 10 10 0
22 8 26 18 6 16 7 16 21 -2 8 -11 14 -28 14 -38 0 -26 51 -24 68 2 7 11 21 20
32 20 11 0 20 5 20 10 0 6 -7 10 -16 10 -8 0 -12 5 -9 10 3 6 13 10 21 10 8 0
27 12 41 26 20 20 32 25 54 20 16 -3 29 -1 29 4 0 6 5 10 10 10 6 0 10 -9 10
-20 0 -17 7 -20 40 -20 22 0 40 5 40 10 0 6 23 10 50 10 28 0 50 5 50 10 0 14
37 13 42 -1 3 -9 10 -8 28 1 18 9 25 10 28 1 2 -6 9 -11 15 -11 8 0 7 4 -1 12
-18 18 -15 28 8 28 11 0 20 -4 20 -10 0 -5 10 -10 23 -10 13 0 28 -5 34 -11 9
-9 16 -8 27 4 9 8 25 13 36 10 13 -3 20 0 20 8 0 10 3 10 12 1 7 -7 25 -12 40
-12 21 0 28 5 28 20 0 13 11 25 33 34 27 11 36 11 62 -2 17 -8 38 -19 47 -23
25 -13 47 -11 93 7 22 8 48 17 58 21 9 3 17 9 17 13 0 5 24 11 53 13 28 3 69
9 89 12 41 8 98 -11 98 -32 0 -7 3 -13 6 -13 13 0 74 33 74 40 0 4 14 13 31
20 36 15 202 15 207 0 2 -6 9 -10 16 -10 7 0 23 -10 35 -21 14 -13 26 -18 30
-12 3 5 19 13 35 17 25 6 28 5 17 -7 -10 -13 -7 -14 22 -7 19 4 58 4 87 -1 50
-8 54 -7 80 21 16 17 35 30 44 30 24 0 19 15 -17 52 -59 61 -69 65 -144 58
-92 -8 -391 -6 -478 4 -38 4 -84 14 -102 22 -37 17 -43 17 -43 3 0 -15 -30
-43 -37 -35 -4 3 2 13 13 20 43 32 -20 38 -191 17 -197 -24 -345 -30 -468 -20
-67 5 -162 13 -212 17 -137 11 -425 -1 -453 -19 -12 -7 -20 -20 -17 -26 8 -22
-26 -14 -45 10 -17 21 -25 22 -127 20 -493 -7 -737 -5 -741 5 -2 7 -13 10 -28
6 -15 -4 -29 0 -39 10 -22 22 -35 20 -35 -5 0 -19 -4 -21 -32 -14 -38 9 -170
24 -275 31 -40 3 -73 10 -73 15 0 5 -24 9 -54 9 -30 0 -58 5 -61 10 -3 6 -19
10 -35 10 -16 0 -32 5 -35 10 -3 6 -14 10 -23 10 -9 1 -48 16 -86 34 -58 28
-66 35 -51 44 17 9 16 12 -8 36 -17 17 -32 24 -43 19 -15 -5 -13 -9 10 -28 16
-13 24 -25 20 -28 -13 -7 -64 4 -64 14 0 4 -18 27 -40 50 l-40 42 0 -31 c0
-36 -5 -39 -27 -16 -17 16 -62 12 -74 -8 -4 -7 -13 -6 -27 1 -17 9 -26 8 -44
-8 -75 -65 -64 -61 -169 -60 -87 1 -122 10 -87 21 6 2 -23 5 -64 6 -129 5
-239 30 -304 72 -35 22 -40 29 -33 48 7 18 4 23 -16 28 -14 3 -32 1 -40 -6
-24 -20 -53 -3 -57 33 -2 21 -10 35 -24 41 -12 5 -30 22 -40 38 -22 32 -61 37
-97 13 -19 -12 -26 -12 -56 2 -24 12 -38 14 -50 6 -13 -8 -22 -5 -41 18 -14
16 -32 29 -41 29 -11 0 -18 11 -21 30 -5 36 6 48 21 23 9 -16 10 -14 11 9 0
15 -7 31 -15 36 -14 7 -14 12 0 45 19 46 44 48 78 7 30 -35 57 -38 77 -10 8
11 21 20 30 20 9 0 22 -9 30 -20 10 -14 26 -20 54 -20 46 0 86 -31 86 -66 0
-15 10 -28 32 -38 33 -17 88 -22 88 -8 0 10 69 45 119 61 30 10 36 8 52 -11
23 -25 23 -29 4 -54 -39 -52 -1 -59 52 -9 20 19 42 35 48 35 5 0 3 4 -5 10
-26 16 -2 24 71 22 48 -2 74 2 84 12 10 10 40 13 122 10 76 -2 110 0 116 9 6
8 7 6 3 -5 -8 -27 31 -48 92 -48 39 0 58 -5 75 -21 12 -11 30 -18 40 -15 18 4
27 -2 66 -53 16 -22 32 -31 51 -31 16 0 41 -5 57 -11 44 -17 103 -19 103 -3 0
8 4 14 9 14 5 0 11 13 14 30 4 20 11 28 20 24 8 -3 21 2 30 10 25 25 56 20 63
-10 5 -19 1 -29 -15 -42 -12 -9 -31 -25 -43 -34 -12 -10 -25 -18 -30 -18 -5 0
-6 -4 -3 -10 9 -15 77 -12 117 4 19 8 51 31 73 50 21 20 45 36 52 36 7 0 13
11 13 24 0 14 11 36 24 50 28 31 76 36 76 8 0 -23 19 -42 42 -42 22 0 23 -7 3
-27 -14 -14 -18 -13 -35 8 -11 12 -23 19 -27 15 -4 -3 -1 -12 5 -18 7 -7 12
-20 12 -29 0 -27 29 -31 60 -9 15 11 35 20 44 20 9 0 16 5 16 10 0 6 5 10 10
10 17 0 11 -38 -7 -44 -10 -3 -7 -4 8 -2 27 3 49 -14 49 -37 0 -9 15 -18 37
-22 21 -4 41 -11 44 -16 9 -15 39 1 39 21 0 13 11 20 40 25 23 4 40 12 40 20
0 14 -45 24 -132 30 -35 2 -64 9 -74 19 -8 9 -20 16 -26 16 -6 0 -1 9 12 20
13 11 27 20 32 20 4 0 8 9 8 21 0 19 21 49 34 49 3 0 6 -7 6 -15 0 -8 5 -15
10 -15 6 0 10 -7 10 -15 0 -10 10 -15 34 -15 19 0 38 -4 41 -10 10 -17 25 -11
25 10 0 13 7 20 20 20 13 0 20 -7 20 -20 0 -11 -4 -20 -10 -20 -5 0 -10 -7
-10 -15 0 -13 7 -15 38 -9 20 4 41 12 45 18 6 8 10 7 14 -1 8 -22 86 -16 112
8 29 27 37 19 10 -10 -18 -19 -19 -25 -8 -32 7 -4 10 -11 6 -16 -5 -4 -12 -1
-17 7 -7 12 -12 12 -22 2 -6 -6 -36 -12 -65 -12 -29 0 -53 -4 -53 -10 0 -5 -9
-10 -20 -10 -11 0 -20 -6 -20 -14 0 -16 97 -26 131 -14 13 5 27 0 45 -17 18
-17 34 -23 56 -20 30 4 68 34 68 55 0 5 12 10 28 10 31 0 47 9 53 29 3 8 13
-4 23 -28 17 -38 22 -41 57 -41 36 0 88 17 90 29 7 42 6 88 -3 98 -13 16 -52
17 -95 1 -29 -10 -36 -10 -44 2 -9 12 -10 12 -5 -2 6 -21 3 -21 -46 -7 -43 11
-48 23 -17 40 14 7 19 17 16 31 -3 11 -3 26 0 34 6 16 43 19 43 4 0 -15 40
-12 41 3 0 10 2 10 6 0 6 -17 133 -18 133 -1 0 9 3 9 12 0 14 -14 78 -16 78
-2 0 6 9 10 20 10 11 0 20 5 20 10 0 6 9 10 21 10 15 0 19 -4 15 -16 -3 -8 1
-22 9 -30 12 -12 12 -19 3 -34 -10 -15 -9 -23 6 -39 20 -21 66 -29 66 -11 0 6
7 10 15 10 8 0 15 5 15 12 0 6 3 8 7 5 3 -4 1 -18 -6 -31 -19 -35 -10 -60 22
-64 15 -2 27 -7 27 -12 0 -10 125 -50 157 -50 19 0 23 5 23 30 0 28 2 30 40
30 33 0 40 3 40 20 0 11 5 20 10 20 6 0 10 -9 10 -20 0 -11 7 -20 15 -20 8 0
26 -12 40 -26 l26 -26 -23 -20 -23 -20 23 7 c14 4 29 2 38 -6 17 -14 74 -20
74 -7 0 4 5 8 11 8 19 0 38 27 33 47 -4 14 4 29 23 48 18 18 24 29 16 32 -7 3
-13 13 -13 24 0 14 -7 19 -29 19 -16 0 -31 5 -33 11 -2 6 -16 12 -31 12 -15 0
-30 3 -33 8 -3 5 6 9 20 9 14 0 26 5 26 10 0 6 11 10 24 10 14 0 28 5 31 10
10 17 40 11 55 -10 16 -23 84 -28 94 -7 5 9 7 9 12 0 9 -19 34 -3 34 22 0 12
5 36 11 54 9 25 16 31 40 31 33 0 65 16 91 44 20 21 23 36 8 36 -5 0 -10 -5
-10 -11 0 -6 -7 -4 -15 5 -23 23 -19 26 35 26 33 0 50 4 51 13 0 10 2 10 6 0
2 -7 11 -13 19 -13 8 0 14 -6 15 -12 0 -10 2 -10 6 0 6 14 63 17 63 2 0 -5 9
-10 20 -10 13 0 20 7 20 19 0 11 7 26 15 35 8 8 15 22 15 30 0 9 5 16 11 16 6
0 8 7 5 16 -7 18 15 44 38 44 8 0 17 8 21 19 14 45 40 61 103 63 43 1 64 -3
76 -15 19 -19 21 -37 4 -38 -10 0 -10 -2 0 -6 6 -2 12 -9 12 -15 0 -6 -7 -8
-15 -5 -19 8 -31 -13 -14 -25 11 -7 11 -11 2 -15 -7 -2 -13 -13 -13 -24 0 -11
-7 -19 -16 -19 -9 0 -29 -13 -44 -30 -15 -16 -35 -30 -44 -30 -9 0 -16 -4 -16
-10 0 -5 -9 -10 -20 -10 -13 0 -20 -7 -20 -20 0 -11 7 -20 15 -20 8 0 15 5 15
10 0 6 7 10 15 10 8 0 15 5 15 10 0 6 10 10 23 10 12 0 29 9 37 20 8 11 22 20
32 20 9 0 20 9 23 20 7 21 25 28 25 10 0 -5 16 -10 35 -10 19 0 35 5 35 10 0
6 11 10 25 10 14 0 25 5 25 10 0 6 5 10 10 10 18 0 10 -32 -12 -52 -17 -15
-19 -21 -9 -27 10 -7 10 -13 2 -29 -15 -28 -14 -32 9 -32 15 0 20 7 20 25 0
13 5 36 12 50 10 22 17 25 60 25 41 0 48 -3 48 -20 0 -13 7 -20 20 -20 11 0
20 -4 20 -10 0 -5 7 -10 15 -10 8 0 15 5 15 10 0 6 7 10 15 10 8 0 15 5 15 10
0 6 -16 10 -36 10 -38 0 -64 18 -64 44 0 19 40 22 40 4 0 -7 5 -5 11 6 9 14 8
21 -2 28 -11 7 -11 11 -1 15 26 10 10 23 -28 23 -22 0 -40 -4 -40 -10 0 -18
-91 -12 -106 8 -16 20 -18 62 -4 62 6 0 10 9 10 20 0 11 5 20 10 20 6 0 10 9
10 20 0 13 7 20 20 20 11 0 20 -4 20 -10 0 -5 12 -10 26 -10 35 0 54 -22 54
-64 0 -29 4 -36 20 -36 11 0 20 -4 20 -9 0 -14 94 -11 102 2 5 8 11 8 16 2 9
-13 72 -17 72 -5 0 6 7 10 15 10 8 0 15 9 15 20 0 15 7 20 24 20 14 0 28 5 31
10 3 6 26 10 51 10 24 0 44 4 44 8 0 4 13 15 28 24 25 15 32 15 55 3 15 -7 41
-15 59 -17 31 -3 34 -6 41 -48 14 -87 14 -130 0 -130 -7 0 -13 -4 -13 -10 0
-5 -7 -10 -15 -10 -8 0 -15 -4 -15 -10 0 -5 -6 -10 -14 -10 -8 0 -18 -9 -21
-20 -3 -11 -11 -20 -16 -20 -5 0 -9 -9 -9 -20 0 -11 7 -20 16 -20 8 0 12 -5 9
-10 -10 -17 5 -50 24 -50 30 0 71 -24 71 -42 0 -10 7 -18 15 -18 8 0 15 -4 15
-10 0 -5 8 -10 19 -10 10 0 24 -6 31 -14 12 -15 22 -14 78 11 29 13 31 16 17
29 -8 9 -15 20 -15 25 0 5 -20 9 -45 9 -25 0 -45 5 -45 10 0 6 7 10 15 10 8 0
15 5 15 10 0 6 -7 10 -15 10 -8 0 -15 5 -15 10 0 6 -15 10 -34 10 -42 0 -52
12 -25 30 23 17 25 50 4 50 -8 0 -15 9 -15 20 0 17 7 20 50 20 43 0 50 3 50
20 0 17 -7 20 -41 20 l-41 0 7 36 c11 59 26 84 51 84 12 0 25 6 28 13 5 10 7
10 12 0 7 -15 44 -17 44 -3 0 6 -4 10 -10 10 -20 0 -9 34 20 62 21 19 37 27
50 23 10 -3 21 -1 25 5 3 5 17 10 30 10 13 0 25 5 27 10 2 6 27 12 57 14 35 2
59 10 66 20 13 17 33 20 60 10 12 -5 13 -9 4 -14 -21 -14 -3 -36 42 -50 24 -8
50 -20 57 -26 16 -16 16 -72 -1 -87 -21 -19 -56 -37 -72 -37 -14 0 -20 -17
-16 -47 1 -8 -10 -13 -29 -13 -34 0 -37 -5 -14 -27 13 -14 17 -14 26 -2 7 11
11 11 15 2 8 -20 23 -15 23 7 0 17 7 20 40 20 33 0 40 -3 40 -20 0 -11 5 -20
10 -20 6 0 10 5 10 10 0 6 9 10 20 10 13 0 20 7 20 20 0 16 7 20 30 20 17 0
30 -4 30 -10 0 -15 29 -12 46 4 9 10 10 17 4 21 -6 4 -9 14 -8 23 2 12 -5 18
-26 20 -27 3 -56 22 -56 36 0 3 14 6 30 6 17 0 30 5 30 10 0 6 -9 10 -20 10
-16 0 -20 7 -20 30 0 17 -5 30 -12 31 -7 0 -3 5 10 11 22 11 30 28 12 28 -24
0 -7 19 26 30 29 10 45 10 78 -1 22 -7 47 -19 53 -25 7 -7 18 -14 25 -17 10
-3 11 -9 1 -26 -20 -32 -17 -44 8 -31 12 7 73 11 150 11 80 -1 129 3 129 9 0
17 40 11 62 -9 11 -11 25 -18 32 -17 6 2 8 1 4 -1 -5 -3 -8 -13 -8 -24 0 -16
7 -19 40 -19 22 0 40 5 40 10 0 6 9 10 20 10 12 0 20 7 20 16 0 26 -40 84 -58
84 -11 0 -13 3 -5 11 16 16 4 49 -18 49 -11 0 -19 5 -19 10 0 14 16 13 40 -2
15 -10 22 -10 32 0 6 6 21 12 33 12 15 1 10 6 -19 21 -52 28 -99 19 -139 -27
-17 -19 -35 -34 -40 -34 -5 0 -22 -13 -37 -30 -15 -16 -38 -30 -50 -30 -12 0
-30 -5 -41 -10 -14 -8 -29 -6 -60 9 -32 16 -46 18 -62 10 -15 -8 -22 -8 -28 2
-6 10 -2 17 16 23 16 7 25 18 25 32 0 13 5 26 10 29 17 11 11 22 -20 35 -37
15 -38 28 -2 32 19 2 28 9 30 26 2 12 10 22 18 22 8 0 17 6 20 13 5 14 84 18
84 4 0 -9 67 -4 77 6 3 4 24 7 46 7 30 0 46 -6 63 -26 13 -14 24 -32 24 -40 0
-9 10 -14 29 -14 24 0 30 5 34 30 10 45 39 69 86 68 23 0 48 5 56 12 17 14 80
17 108 5 12 -5 23 -1 35 12 25 29 52 41 97 41 22 0 69 3 105 5 36 3 72 1 80
-3 25 -14 70 0 70 21 0 25 30 25 60 -1 13 -11 29 -20 36 -20 7 0 17 -6 21 -13
11 -18 92 -59 104 -52 5 4 9 0 9 -7 0 -23 16 -39 33 -32 9 3 17 12 17 18 0 19
41 34 76 29 18 -3 35 0 38 5 10 17 -53 29 -121 24 -56 -4 -64 -2 -87 21 -23
23 -80 47 -113 47 -7 0 -13 12 -13 26 0 24 2 25 43 19 36 -5 145 -11 279 -14
25 -1 45 -9 62 -26 14 -14 32 -25 41 -25 10 0 4 -10 -17 -29 -34 -30 -34 -50
-1 -32 15 7 26 5 49 -10 l29 -19 -27 0 c-35 0 -58 -34 -56 -81 1 -31 6 -38 33
-48 17 -6 37 -11 44 -11 17 0 -30 59 -48 59 -11 1 -11 4 -1 16 7 9 19 14 26
11 7 -3 22 6 33 19 21 28 41 33 41 11 0 -15 45 -30 60 -21 5 3 7 12 3 20 -5
16 5 19 31 9 22 -8 20 -21 -4 -27 -41 -11 13 -56 58 -48 6 1 12 -3 12 -9 0
-15 25 -40 40 -40 6 0 20 -9 32 -20 13 -12 36 -20 56 -20 34 0 35 0 17 20 -10
11 -24 20 -32 20 -8 0 -12 4 -9 9 7 10 86 -5 100 -19 6 -6 3 -12 -7 -16 -14
-5 -14 -8 -2 -20 17 -17 41 -18 51 -2 5 7 10 4 15 -10 5 -13 17 -22 28 -22 11
0 23 -4 26 -10 3 -5 28 -10 56 -10 42 0 49 3 49 20 0 14 7 20 21 20 14 0 19 5
16 14 -4 10 -1 13 9 9 8 -3 14 1 14 11 0 9 4 16 9 16 5 0 17 7 26 17 14 13 18
14 25 3 7 -11 11 -10 24 3 16 15 22 37 11 37 -4 0 -20 -7 -37 -16 -22 -12 -33
-13 -38 -4 -4 6 -32 13 -63 16 -42 3 -59 0 -72 -12 -14 -14 -30 -16 -103 -10
-141 10 -201 23 -251 53 -51 32 -64 65 -33 82 11 6 22 8 25 4 4 -3 15 5 26 18
16 20 21 21 35 10 22 -18 20 -28 -5 -36 -38 -12 -9 -19 70 -16 48 1 82 -2 86
-8 11 -20 45 -13 45 9 0 15 -7 20 -27 20 -27 1 -27 1 -9 15 18 13 16 15 -23
21 -22 4 -41 10 -41 15 0 13 -34 11 -48 -3 -8 -8 -15 -8 -25 0 -8 7 -34 12
-58 11 -74 -1 -85 1 -70 10 27 17 -1 31 -64 31 -64 0 -141 24 -171 54 -12 13
-11 15 6 21 11 4 18 11 14 16 -3 6 0 16 6 24 15 18 17 17 -90 15 -84 -2 -105
-10 -95 -37 2 -8 -4 -13 -15 -13 -22 0 -27 16 -7 23 29 10 -73 17 -118 7 -27
-5 -106 -13 -175 -16 -69 -3 -150 -10 -180 -15 -30 -6 -84 -14 -120 -18 -36
-5 -104 -15 -151 -24 -48 -9 -109 -16 -135 -16 -27 1 -66 -6 -86 -14 -51 -21
-125 -32 -141 -20 -11 9 -67 13 -263 17 -28 0 -62 -4 -75 -11 -37 -17 -151
-30 -293 -32 -72 -1 -134 -5 -139 -8 -5 -3 -36 -9 -70 -13 -34 -5 -89 -13
-122 -19 -33 -6 -103 -15 -155 -21 -52 -6 -120 -15 -150 -20 -156 -25 -201
-31 -272 -36 -76 -6 -78 -7 -135 -60 -32 -30 -61 -54 -65 -54 -4 0 -18 -11
-32 -25 -14 -14 -32 -25 -41 -25 -8 0 -15 -4 -15 -10 0 -5 -9 -10 -20 -10 -11
0 -20 -4 -20 -10 0 -13 -183 -14 -208 -1 -9 5 -38 19 -64 31 -27 13 -48 27
-48 32 0 4 -6 8 -13 8 -7 0 -23 9 -34 20 -28 25 -61 30 -278 41 -99 5 -216 13
-260 19 -44 6 -147 13 -230 16 -82 3 -152 9 -155 14 -3 5 -41 11 -85 14 -112
7 -177 16 -200 26 -11 5 -38 11 -60 14 -79 10 -140 22 -153 30 -13 8 -24 10
-112 22 -25 3 -49 10 -54 15 -6 5 -23 9 -38 9 -15 0 -28 5 -28 10 0 6 -14 10
-30 10 -17 0 -39 5 -50 10 -11 6 -29 15 -40 20 -11 6 -27 10 -35 10 -8 0 -15
5 -15 10 0 6 -13 10 -28 10 -31 0 -82 21 -82 33 0 29 -87 67 -170 74 -60 5
-62 -6 -3 -17 35 -7 33 -8 -20 -9 -39 -1 -63 4 -73 13 -8 8 -36 18 -62 22 -26
4 -65 16 -87 27 -45 23 -105 31 -105 14 0 -6 -8 -3 -17 6 -71 66 -72 67 -117
67 -49 0 -120 31 -139 61 -8 13 -15 15 -23 8 -8 -7 -14 -6 -19 1 -3 5 -19 10
-36 10 -16 0 -29 5 -29 10 0 6 -11 10 -24 10 -14 0 -28 5 -32 11 -3 6 -17 8
-31 4 -18 -4 -37 1 -64 19 -23 16 -53 26 -74 26 -38 0 -54 10 -73 47 -14 25
-6 53 13 53 7 0 15 5 17 11 5 14 232 13 236 -1 2 -6 9 -5 17 3 44 41 53 46 60
30 3 -9 1 -19 -4 -23 -19 -11 28 -40 64 -40 19 0 35 -4 35 -10 0 -5 14 -10 30
-10 17 0 30 -4 30 -10 0 -5 16 -10 36 -10 19 0 44 -5 55 -11 27 -14 100 -14
108 0 4 6 15 9 24 5 12 -4 16 -2 14 7 -2 8 -2 11 0 7 7 -12 43 -10 43 2 0 6 5
10 10 10 6 0 10 -7 10 -16 0 -22 40 -56 58 -49 7 3 20 5 28 5 8 0 14 9 14 20
0 11 5 20 10 20 6 0 10 14 10 30 0 17 -4 30 -10 30 -5 0 -10 9 -10 20 0 11 -4
20 -10 20 -5 0 -10 -4 -10 -10 0 -5 -9 -10 -20 -10 -13 0 -20 7 -20 20 0 13 7
20 19 20 11 0 21 6 24 13 3 8 11 5 24 -10 24 -27 33 -29 33 -7 0 18 23 44 40
44 17 0 60 47 61 67 0 11 3 13 6 6 5 -15 53 -18 53 -4 0 5 -6 11 -12 14 -8 2
-9 8 -4 13 5 5 11 4 13 -3 3 -7 13 -13 24 -13 10 0 19 -4 19 -10 0 -5 14 -10
30 -10 17 0 30 -4 30 -10 0 -5 -11 -10 -24 -10 -16 0 -27 -7 -31 -20 -3 -11
-11 -20 -16 -20 -5 0 -9 9 -9 20 0 11 -7 20 -15 20 -8 0 -15 -9 -15 -20 0 -22
-26 -28 -32 -8 -3 9 -9 8 -21 -4 -25 -24 -21 -28 23 -28 33 0 40 -3 40 -20 0
-16 -7 -20 -30 -20 -16 0 -30 5 -30 10 0 6 -9 10 -21 10 -16 0 -20 -5 -17 -27
2 -22 9 -29 31 -31 15 -2 27 -8 27 -13 0 -5 9 -9 20 -9 11 0 20 5 20 10 0 6 9
10 21 10 13 0 19 5 16 13 -3 6 -8 19 -12 28 -3 9 1 23 9 32 9 9 16 23 16 31 0
10 9 16 23 16 18 0 28 10 42 40 11 25 25 40 36 40 10 0 21 5 24 10 3 6 28 10
56 10 27 0 49 5 49 10 0 6 7 10 15 10 11 0 13 -8 9 -32 -5 -26 -3 -30 6 -18 9
11 13 12 17 3 2 -7 16 -13 29 -13 13 0 24 -4 24 -10 0 -15 -90 -13 -91 3 0 6
-5 2 -11 -10 -6 -13 -15 -23 -20 -23 -4 0 -8 -4 -8 -10 0 -5 9 -10 20 -10 11
0 20 5 20 10 0 6 7 10 15 10 8 0 15 -4 15 -10 0 -5 8 -10 19 -10 23 0 34 -45
18 -75 -14 -26 -33 -45 -46 -45 -14 0 -14 -6 0 -32 8 -15 8 -22 -1 -28 -7 -4
-10 -14 -8 -21 5 -16 38 41 38 66 0 8 4 15 8 15 5 0 19 10 32 22 16 15 25 18
28 10 2 -7 15 -12 28 -12 17 0 24 6 24 20 0 11 7 20 15 20 8 0 15 5 15 10 0 6
-7 10 -15 10 -8 0 -15 -4 -15 -10 0 -5 -16 -10 -34 -10 -34 0 -35 1 -33 40 1
36 4 40 28 40 15 0 29 -6 31 -12 6 -18 38 16 37 39 0 10 -3 13 -6 6 -5 -15
-73 -18 -73 -4 0 5 5 11 11 13 14 5 0 38 -17 38 -20 0 -17 17 6 40 22 22 70
27 70 8 0 -6 6 -4 13 7 8 10 19 15 25 11 18 -11 14 -23 -10 -31 l-23 -8 24 -4
c13 -3 28 0 34 6 17 17 25 13 29 -11 3 -20 8 -22 37 -20 21 2 37 -1 42 -10 13
-19 11 -28 -6 -28 -8 0 -15 -3 -15 -6 0 -10 28 -34 39 -34 6 0 11 -6 12 -12 0
-10 2 -10 6 0 6 14 73 17 73 2 0 -5 9 -10 20 -10 11 0 20 -4 20 -10 0 -5 -5
-10 -11 -10 -11 0 -39 -24 -39 -34 0 -12 38 -6 44 7 5 10 7 10 12 0 3 -7 21
-13 40 -13 19 0 34 -4 34 -10 0 -5 10 -10 23 -10 23 0 47 -17 47 -32 0 -4 -9
-8 -20 -8 -22 0 -23 -1 -14 -24 8 -21 34 -21 34 0 0 18 23 44 40 44 15 0 40
-25 40 -40 0 -22 27 -38 63 -37 29 1 37 5 37 19 0 10 -4 18 -10 18 -5 0 -10 7
-10 16 0 11 -6 14 -20 9 -18 -6 -20 -2 -20 34 0 23 -3 41 -6 41 -11 0 -34 -29
-34 -44 0 -9 -4 -16 -10 -16 -5 0 -10 5 -10 10 0 6 -9 10 -20 10 -11 0 -20 5
-20 10 0 6 14 10 30 10 21 0 30 5 30 16 0 18 24 44 41 44 6 0 20 9 30 21 17
20 19 20 35 5 15 -16 15 -18 -5 -35 -12 -10 -21 -21 -21 -25 0 -11 38 -6 44 7
5 10 7 10 12 0 3 -7 14 -13 25 -13 10 0 19 -4 19 -10 0 -5 14 -10 30 -10 17 0
30 5 30 10 0 6 18 10 40 10 38 0 40 -2 40 -30 0 -16 -4 -30 -10 -30 -5 0 -10
-4 -10 -10 0 -18 22 -10 27 10 6 22 29 27 36 8 3 -9 8 -10 16 -2 9 8 6 16 -9
34 -11 13 -20 27 -20 32 0 4 -16 8 -35 8 -19 0 -35 5 -35 10 0 6 -13 10 -30
10 -16 0 -30 -4 -30 -10 0 -15 -29 -12 -46 4 -20 21 -18 26 12 26 23 0 54 20
54 34 0 3 -16 6 -35 6 -19 0 -35 -4 -35 -10 0 -5 -7 -10 -16 -10 -11 0 -14 6
-10 23 3 12 3 16 0 10 -7 -15 -44 -17 -44 -3 0 6 6 10 14 10 12 0 26 20 26 39
0 9 -66 81 -74 81 -3 0 -6 -9 -6 -20 0 -11 5 -20 10 -20 6 0 10 -4 10 -10 0
-5 -9 -10 -20 -10 -32 0 -26 47 11 81 17 16 35 29 40 29 5 0 9 7 9 15 0 8 2
15 4 15 2 0 11 3 20 6 11 4 16 1 16 -10 0 -9 -6 -16 -12 -16 -14 0 -68 -43
-68 -54 0 -3 9 -6 20 -6 11 0 20 4 20 9 0 5 14 14 30 21 25 10 30 18 30 48 0
23 7 41 21 53 27 23 39 16 39 -22 0 -18 5 -29 13 -28 42 5 68 -2 66 -18 -3
-33 1 -35 27 -18 22 14 28 15 35 4 12 -19 6 -32 -19 -44 -30 -13 -31 -65 -2
-65 11 0 20 -2 20 -5 0 -13 -52 -57 -58 -50 -4 4 -1 10 6 12 17 6 15 23 -3 23
-8 0 -15 9 -15 20 0 11 -7 20 -15 20 -8 0 -15 -4 -15 -10 0 -5 5 -10 11 -10 8
0 10 -14 6 -40 -4 -29 -2 -40 8 -40 7 0 16 -6 19 -12 5 -10 7 -10 12 0 3 6 12
12 20 12 8 0 14 5 14 10 0 14 27 12 33 -2 3 -7 3 10 0 37 -3 28 -10 52 -15 53
-10 4 -11 32 0 32 16 0 29 -16 36 -42 5 -23 12 -28 36 -28 17 0 30 -4 30 -10
0 -15 19 -12 36 4 21 22 18 26 -22 26 -43 0 -77 26 -47 37 10 4 21 11 25 17 4
6 11 7 15 2 4 -5 2 -11 -4 -13 -27 -10 -13 -30 17 -25 17 2 30 8 30 13 0 5 9
9 20 9 11 0 20 -6 20 -12 0 -9 3 -8 10 2 11 18 -20 50 -50 50 -11 0 -20 4 -20
10 0 17 -41 33 -53 21 -6 -6 -21 -11 -33 -11 -32 0 -21 32 17 49 33 14 38 28
12 33 -29 5 -84 -15 -78 -29 7 -20 -17 -15 -42 9 -18 17 -26 19 -35 10 -18
-18 -28 -15 -28 8 0 13 7 20 19 20 12 0 20 9 23 25 5 26 -12 49 -20 27 -2 -7
-18 -12 -35 -12 -30 1 -27 3 31 32 58 29 62 33 63 67 0 20 4 44 8 55 6 17 54
40 109 53 12 3 22 9 22 14 0 5 9 9 19 9 11 0 22 6 24 13 4 8 6 9 6 0 1 -18
-28 -43 -51 -43 -11 0 -22 -8 -25 -20 -3 -11 -11 -20 -19 -20 -17 0 -83 -59
-66 -60 6 0 12 -7 12 -15 0 -8 9 -15 20 -15 11 0 20 7 20 15 0 8 5 15 10 15 6
0 10 -4 10 -9 0 -4 11 -6 25 -3 28 5 58 -15 51 -34 -10 -25 38 -24 64 1 l26
25 24 -25 c30 -32 21 -40 -41 -38 -27 0 -49 -3 -49 -8 0 -5 9 -9 20 -9 11 0
20 -5 20 -10 0 -6 8 -5 20 2 28 18 50 -4 32 -32 -18 -29 4 -25 36 7 15 14 32
40 38 57 12 36 26 42 47 22 13 -14 15 -13 20 4 7 26 0 30 -47 31 l-41 1 33 9
c34 10 35 29 1 29 -46 0 -84 72 -41 78 12 2 22 7 22 12 0 5 14 4 30 -1 17 -6
30 -15 30 -20 0 -5 5 -9 10 -9 7 0 7 8 -1 22 -10 18 -8 24 11 40 12 10 26 16
30 13 4 -3 35 -5 69 -6 57 -2 62 -3 76 -32 8 -16 15 -32 15 -34 0 -1 -18 -3
-40 -3 -22 0 -40 -5 -40 -11 0 -6 -15 -8 -43 -4 -39 6 -45 4 -61 -19 -9 -14
-12 -26 -7 -26 6 0 19 -10 30 -22 19 -19 23 -20 46 -8 23 12 23 14 7 26 -16
12 -15 13 6 14 12 0 22 -4 22 -10 0 -12 41 -60 51 -60 4 0 9 9 12 20 3 11 12
20 21 20 9 0 16 5 16 10 0 6 18 10 40 10 44 0 51 11 20 33 -14 9 -18 20 -14
32 8 20 -10 35 -43 35 -18 0 -23 6 -23 25 0 27 13 31 54 15 16 -6 26 -17 26
-30 0 -13 7 -20 20 -20 31 0 36 28 10 55 l-23 24 86 -3 c62 -2 87 0 91 9 6 17
-3 25 -26 25 -22 0 -24 16 -2 24 29 11 64 7 64 -9 0 -8 5 -15 10 -15 6 0 10
-7 10 -15 0 -8 5 -15 10 -15 6 0 10 -7 10 -15 0 -8 5 -15 10 -15 6 0 10 9 10
20 0 11 5 20 10 20 6 0 10 5 10 11 0 6 -9 8 -20 4 -16 -5 -20 -2 -20 14 0 14
6 21 20 21 11 0 20 -4 20 -10 0 -6 31 -10 74 -10 91 0 106 -5 106 -36 0 -13 5
-24 12 -24 6 0 1 -8 -10 -19 -12 -10 -22 -24 -22 -31 0 -8 -6 -10 -17 -5 -10
4 -24 9 -30 12 -18 7 -16 -22 2 -37 11 -10 18 -9 30 4 10 9 34 16 58 16 23 0
51 7 61 15 23 17 36 11 36 -16 0 -11 5 -17 10 -14 6 3 10 15 10 26 0 21 25 25
50 9 12 -7 13 -13 4 -27 -9 -14 -8 -21 2 -31 17 -16 17 -16 44 8 l23 20 30
-26 c26 -22 37 -25 69 -20 58 9 77 25 76 62 -2 42 7 52 49 60 20 4 48 13 62
20 14 8 41 14 59 14 45 0 44 -32 -3 -54 -19 -9 -35 -21 -35 -26 0 -17 17 -19
36 -5 10 8 34 15 53 15 29 0 32 2 21 15 -11 13 -7 15 27 15 22 0 42 3 45 6 10
9 -4 44 -16 42 -6 -1 -24 5 -39 12 l-28 14 23 13 c38 22 147 8 178 -23z
m-5259 -36 c13 -19 11 -38 -3 -42 -7 -2 -45 -13 -84 -25 -56 -18 -79 -21 -114
-14 -90 17 -74 69 28 90 68 14 162 9 173 -9z m-438 -132 c9 -7 17 -18 17 -24
0 -28 130 -56 145 -32 10 17 35 11 35 -7 0 -10 -9 -29 -20 -43 -24 -30 -26
-60 -4 -60 8 0 32 -14 53 -30 26 -22 51 -32 82 -34 88 -7 105 -15 117 -54 13
-43 12 -45 -30 -45 -18 0 -41 -9 -52 -19 -11 -10 -27 -18 -35 -19 -32 -2 -66
3 -75 12 -6 5 -16 9 -23 9 -19 0 -82 68 -89 96 -4 17 -13 24 -30 24 -13 0 -24
-4 -24 -10 0 -22 -62 -9 -109 23 -53 34 -81 72 -81 107 0 42 62 121 95 120 5
0 18 -7 28 -14z m672 -248 c42 -20 58 -38 35 -38 -5 0 -10 -13 -10 -30 0 -16
5 -30 10 -30 15 0 12 -29 -4 -46 -8 -8 -21 -14 -28 -14 -8 0 -20 -9 -28 -20
-8 -11 -18 -20 -22 -20 -4 0 -8 9 -8 20 0 11 -4 20 -10 20 -5 0 -10 9 -10 20
0 11 5 20 10 20 6 0 10 5 10 10 0 6 -11 10 -25 10 -27 0 -75 40 -75 62 0 7 10
22 23 35 29 28 74 29 132 1z m213 -170 c6 -6 32 -10 57 -10 73 3 108 -22 98
-70 -5 -26 -3 -28 25 -28 35 0 42 -13 42 -75 0 -25 6 -50 15 -59 20 -20 19
-26 -5 -26 -11 0 -20 -4 -20 -10 0 -5 -7 -10 -15 -10 -8 0 -15 4 -15 10 0 19
-63 70 -86 70 -13 0 -24 5 -24 10 0 6 -8 10 -18 10 -10 0 -24 9 -32 20 -8 11
-22 20 -32 20 -10 0 -18 5 -18 10 0 6 -7 10 -15 10 -9 0 -31 16 -50 35 -27 26
-35 43 -35 70 l0 35 58 0 c32 0 63 -5 70 -12z m4809 -958 c1 -18 -3 -30 -10
-30 -6 0 -1 -7 11 -16 12 -8 22 -22 22 -31 0 -17 -48 -63 -67 -63 -6 0 -13 -5
-15 -11 -5 -14 -171 -13 -176 1 -2 6 -17 10 -33 10 -39 0 -38 26 1 35 17 4 30
11 30 16 0 5 18 20 41 34 22 15 54 39 71 56 32 30 48 36 48 19 0 -15 26 -12
40 4 17 22 35 10 37 -24z m-6012 -130 c3 -5 -1 -10 -9 -10 -9 0 -16 -4 -16
-10 0 -5 -5 -10 -10 -10 -6 0 -30 -20 -53 -44 -23 -24 -53 -46 -65 -50 -24 -8
-29 -21 -9 -30 10 -5 10 -7 0 -12 -13 -6 -18 -80 -7 -108 3 -9 12 -16 20 -16
8 0 14 -4 14 -10 0 -5 9 -10 20 -10 11 0 20 5 20 10 0 6 9 10 20 10 13 0 20
-7 20 -20 0 -11 -4 -20 -10 -20 -5 0 -10 -4 -10 -10 0 -5 14 -10 30 -10 17 0
30 5 30 10 0 6 7 10 15 10 8 0 15 -4 15 -10 0 -5 -7 -10 -15 -10 -10 0 -15
-10 -15 -28 0 -16 -8 -34 -20 -42 -11 -8 -20 -22 -20 -32 0 -10 -7 -18 -15
-18 -8 0 -17 -12 -21 -27 -11 -53 -18 -58 -22 -15 -2 34 -7 42 -23 42 -21 0
-26 -16 -6 -23 6 -3 -3 -8 -20 -12 -18 -4 -33 -11 -33 -16 0 -5 -7 -9 -16 -9
-24 0 -45 -25 -32 -38 7 -7 8 -15 4 -19 -4 -5 -16 2 -26 15 -13 15 -29 22 -54
22 -26 0 -36 4 -36 16 0 11 -6 14 -20 9 -16 -5 -20 -2 -20 15 0 17 -4 20 -22
15 -17 -5 -19 -4 -9 3 12 9 12 13 -3 28 -14 14 -20 15 -26 4 -6 -9 -17 -4 -43
22 -45 45 -57 69 -57 112 0 29 4 36 20 36 11 0 20 5 20 10 0 6 13 10 28 10 15
0 33 5 39 11 8 8 13 5 18 -10 5 -17 14 -21 51 -21 26 0 44 5 44 11 0 17 40 49
62 49 19 0 24 15 8 25 -5 3 -10 22 -10 41 0 27 4 34 20 34 11 0 20 5 20 10 0
6 9 10 20 10 11 0 20 5 20 10 0 6 7 10 16 10 9 0 26 8 39 18 46 35 117 80 127
81 4 1 10 -3 13 -9z m5271 -20 c8 0 14 -7 14 -15 0 -8 4 -15 9 -15 5 0 16 7
25 15 20 21 26 19 26 -10 0 -18 5 -25 19 -25 11 0 23 -4 26 -10 4 -6 -10 -10
-35 -10 -22 0 -49 -4 -60 -10 -11 -5 -29 -14 -40 -20 -30 -15 -119 -12 -136 4
-15 16 -19 36 -6 36 4 0 20 12 35 26 30 28 73 45 95 38 8 -2 20 -4 28 -4z
m-3751 -100 c20 -1 -48 -30 -71 -30 -12 0 -26 -4 -29 -10 -3 -5 -31 -10 -60
-10 -51 0 -55 -2 -61 -27 -10 -38 -27 -53 -63 -53 -17 0 -31 -4 -31 -10 0 -5
-5 -10 -10 -10 -6 0 -23 -12 -37 -26 -20 -20 -23 -28 -13 -34 22 -14 -14 -40
-54 -40 -29 0 -36 -4 -36 -20 0 -17 -7 -20 -50 -20 -49 0 -50 1 -50 30 0 23 4
30 20 30 11 0 20 5 20 10 0 6 7 10 15 10 19 0 55 35 74 73 11 21 22 27 46 27
22 0 42 10 63 30 18 17 43 30 57 30 14 0 25 5 25 10 0 6 12 10 28 10 15 1 43
9 62 20 26 14 49 18 90 15 30 -2 60 -4 65 -5z m2260 -30 c6 -20 35 -28 35 -10
0 6 5 10 10 10 6 0 10 -16 10 -36 0 -29 -3 -35 -16 -30 -9 3 -25 -4 -40 -19
-31 -31 -30 -35 6 -35 23 0 30 -4 30 -20 0 -18 7 -20 60 -20 33 0 60 -2 60 -5
0 -13 -50 -55 -65 -55 -8 0 -15 -4 -15 -10 0 -6 -30 -10 -69 -10 -46 0 -71 -4
-73 -12 -3 -9 -9 -8 -21 4 -18 18 -23 68 -7 68 6 0 10 14 10 30 0 17 5 30 10
30 20 0 9 33 -20 60 -35 33 -37 40 -10 40 11 0 20 -4 20 -10 0 -5 5 -10 10
-10 6 0 10 14 10 30 0 27 3 30 29 30 21 0 32 -6 36 -20z m-2245 -140 c0 -15 7
-20 25 -20 14 0 25 -4 25 -10 0 -5 -11 -20 -25 -34 -30 -30 -33 -56 -5 -56 11
0 20 5 20 10 0 15 29 12 46 -4 17 -17 19 -46 3 -46 -6 0 -9 -7 -6 -15 8 -18
-13 -32 -23 -15 -9 15 -30 4 -30 -16 0 -8 -7 -14 -16 -14 -17 0 -16 22 1 63 5
12 3 17 -9 17 -9 0 -16 5 -16 12 0 6 -8 1 -19 -10 -20 -24 -41 -29 -42 -9 0
10 -2 10 -6 0 -2 -7 -14 -13 -25 -13 -11 0 -32 -13 -47 -29 -22 -23 -29 -26
-39 -15 -6 7 -12 25 -12 39 0 16 -6 25 -15 25 -8 0 -15 -5 -15 -12 0 -6 -2 -9
-5 -6 -12 12 9 38 31 38 13 0 24 5 24 10 0 6 8 10 18 10 10 0 24 9 32 20 8 11
20 20 27 20 7 0 13 5 13 10 0 6 -7 10 -15 10 -18 0 -19 11 -2 32 15 20 33 26
75 27 26 1 32 -3 32 -19z m300 -10 c0 -5 7 -10 16 -10 11 0 14 -5 9 -17 -4
-10 -9 -46 -12 -80 -3 -35 -9 -63 -14 -63 -10 0 0 -30 15 -46 13 -13 58 -25
51 -14 -13 21 9 40 46 40 35 0 39 -3 39 -25 0 -14 -8 -29 -20 -35 -13 -7 -20
-21 -20 -38 0 -16 -9 -38 -20 -49 -17 -19 -27 -21 -102 -16 -46 3 -86 11 -90
17 -5 8 -14 7 -29 -3 -19 -11 -24 -11 -33 1 -6 8 -17 13 -23 11 -7 -3 -13 0
-13 6 0 6 -7 11 -15 11 -8 0 -15 -7 -15 -16 0 -8 -7 -22 -15 -30 -13 -14 -15
-10 -15 29 0 25 -3 52 -6 61 -4 12 0 16 15 16 12 0 21 -4 21 -10 0 -5 9 -10
19 -10 11 0 23 -4 26 -10 7 -11 75 -14 75 -3 0 4 -10 17 -22 30 l-21 23 22 0
c18 0 21 4 17 23 -3 12 -3 16 0 10 7 -15 44 -17 44 -3 0 6 6 10 14 10 8 0 18
9 21 20 3 11 13 20 21 20 15 0 18 18 8 44 -4 12 -20 16 -55 16 -27 0 -49 5
-49 10 0 6 9 10 20 10 22 0 27 16 8 22 -15 5 13 38 31 38 6 0 11 5 11 10 0 6
9 10 20 10 11 0 20 -4 20 -10z m-1040 -96 c0 -29 -21 -54 -44 -54 -9 0 -16 -3
-16 -7 0 -11 -50 -33 -72 -33 -10 0 -18 -4 -18 -8 0 -5 -9 -19 -20 -32 -12
-14 -18 -31 -14 -42 7 -24 -8 -23 -26 2 -15 21 -50 28 -50 10 0 -5 -4 -10 -10
-10 -5 0 -10 8 -10 18 1 20 59 133 60 115 0 -20 34 -15 50 7 8 11 22 20 32 20
10 0 18 5 18 10 0 6 7 10 15 10 8 0 15 5 15 10 0 6 20 10 45 10 42 0 45 -2 45
-26z m1330 16 c0 -5 11 -10 25 -10 26 0 75 -39 75 -60 0 -6 -13 -13 -30 -16
-16 -4 -30 -10 -30 -15 0 -5 -17 -9 -38 -9 -26 0 -41 -6 -50 -20 -8 -13 -23
-20 -42 -20 -23 0 -30 4 -30 20 0 13 7 20 20 20 13 0 20 7 20 20 0 14 -6 20
-16 18 -10 -2 -19 3 -21 10 -3 6 1 12 9 12 7 0 20 9 28 20 8 11 20 20 27 20 7
0 13 5 13 10 0 6 9 10 20 10 11 0 20 -4 20 -10z m1670 -60 c0 -5 9 -10 21 -10
11 0 17 -4 14 -10 -3 -5 -21 -10 -40 -10 -25 0 -35 -5 -40 -20 -3 -11 -14 -27
-23 -36 -15 -15 -14 -18 7 -35 l22 -18 -35 -36 c-19 -19 -42 -35 -51 -35 -23
0 -18 18 8 26 20 7 20 8 -10 16 -26 7 -33 14 -33 33 0 28 -23 34 -46 11 -19
-20 -18 -34 6 -41 30 -10 24 -22 -15 -29 -19 -3 -51 -9 -70 -12 -23 -4 -35 -2
-35 5 0 6 5 11 11 11 6 0 8 9 4 20 -6 17 -2 20 29 20 33 0 36 2 36 30 0 26 3
30 29 30 16 0 32 6 35 13 5 10 7 10 12 0 11 -24 54 -14 89 22 19 19 35 41 35
50 0 8 9 15 20 15 11 0 20 -4 20 -10z m-3540 -1290 c0 -5 18 -10 39 -10 25 0
41 -5 45 -15 3 -8 12 -12 20 -9 8 3 17 1 21 -5 3 -6 17 -11 31 -11 13 0 24 -4
24 -10 0 -5 6 -10 14 -10 18 0 30 -31 16 -40 -6 -4 -8 -14 -4 -24 5 -14 9 -15
15 -5 4 8 11 10 15 6 4 -4 0 -15 -10 -25 -14 -12 -20 -14 -23 -4 -8 20 -23 14
-24 -10 0 -13 -3 -17 -6 -10 -2 6 -13 12 -23 12 -10 0 -20 7 -24 15 -3 8 -12
12 -20 9 -9 -3 -17 3 -21 15 -3 12 -12 21 -18 21 -7 0 -20 14 -29 30 -10 17
-25 30 -36 30 -10 0 -24 11 -30 25 -16 34 -15 35 8 35 11 0 20 -4 20 -10z
m-262 -725 c74 -31 102 -52 102 -78 0 -30 54 -74 101 -81 46 -7 109 -62 141
-124 15 -28 22 -32 57 -32 22 0 43 -4 46 -10 3 -5 23 -10 43 -10 50 -1 76 -22
68 -54 -3 -15 -13 -26 -21 -26 -8 0 -15 -4 -15 -10 0 -5 -6 -10 -14 -10 -8 0
-18 -9 -21 -20 -6 -20 -45 -29 -45 -10 0 6 -11 10 -25 10 -14 0 -25 5 -25 10
0 6 -5 10 -10 10 -6 0 -23 11 -37 24 -14 13 -32 22 -39 19 -8 -3 -14 0 -14 6
0 6 -7 11 -15 11 -8 0 -15 5 -15 10 0 6 -7 10 -15 10 -8 0 -15 4 -15 8 0 5
-11 22 -25 38 -14 16 -35 44 -46 62 -16 24 -28 32 -50 32 -22 0 -29 5 -29 19
0 11 -6 26 -13 33 -7 7 -23 29 -36 48 -39 57 -68 80 -100 80 -49 0 -78 18 -79
49 -1 27 0 27 41 20 23 -4 70 -19 105 -34z m606 -411 c9 -3 16 -13 16 -21 0
-17 24 -43 39 -43 6 0 11 -4 11 -10 0 -5 7 -10 15 -10 8 0 15 -4 15 -10 0 -5
18 -10 40 -10 36 0 40 -2 40 -26 0 -26 -20 -54 -39 -54 -6 0 -11 -9 -11 -20 0
-18 -12 -24 -47 -23 -7 1 -13 -2 -13 -6 0 -3 -4 -13 -10 -21 -7 -12 -12 -10
-30 10 -16 18 -23 21 -29 12 -18 -30 -47 43 -58 151 -4 41 -2 51 18 67 25 23
22 22 43 14z m9337 -87 c28 -24 49 -91 49 -156 0 -23 -4 -41 -10 -41 -5 0 -10
-8 -10 -18 0 -10 -9 -24 -20 -32 -22 -16 -26 -50 -9 -67 16 -16 -4 -183 -22
-183 -5 0 -9 -9 -9 -20 0 -11 -4 -20 -10 -20 -5 0 -10 -9 -10 -20 0 -11 -4
-20 -9 -20 -5 0 -14 -12 -20 -28 -23 -55 -200 -86 -360 -64 -82 12 -111 4
-132 -34 -7 -13 -16 -24 -21 -24 -4 0 -8 -4 -8 -8 0 -4 -26 -36 -59 -71 -32
-34 -65 -75 -72 -89 -17 -32 -45 -59 -70 -67 -11 -4 -19 -11 -19 -16 0 -5 -9
-9 -19 -9 -11 0 -21 -3 -23 -7 -6 -14 -85 -53 -108 -53 -12 0 -38 -17 -60 -40
l-39 -41 -68 6 c-198 16 -434 19 -462 5 -31 -15 -88 -30 -114 -30 -15 0 -27
-4 -27 -10 0 -5 -11 -10 -25 -10 -14 0 -25 -4 -25 -10 0 -5 -9 -10 -20 -10
-11 0 -20 -4 -20 -10 0 -5 -11 -10 -25 -10 -14 0 -25 -4 -25 -10 0 -6 -28 -10
-65 -10 -37 0 -65 -4 -65 -10 0 -5 -18 -10 -40 -10 -22 0 -40 -4 -40 -10 0 -5
-13 -10 -30 -10 -16 0 -30 -4 -30 -10 0 -5 -16 -10 -35 -10 -37 0 -85 -18 -85
-32 0 -4 -9 -8 -20 -8 -11 0 -20 -4 -20 -10 0 -5 -8 -10 -18 -10 -10 0 -24 -9
-32 -20 -8 -12 -26 -20 -42 -20 -15 0 -28 -4 -28 -10 0 -5 -9 -10 -20 -10 -11
0 -20 -4 -20 -10 0 -5 -11 -10 -25 -10 -14 0 -25 -4 -25 -10 0 -5 -9 -10 -20
-10 -11 0 -20 -4 -20 -10 0 -5 -9 -10 -21 -10 -28 0 -49 -23 -49 -54 0 -19 -5
-26 -20 -26 -11 0 -20 -3 -20 -8 0 -4 -18 -8 -39 -9 -47 -2 -71 18 -51 42 11
13 -7 15 -153 15 -113 0 -168 4 -173 11 -5 8 -33 10 -88 7 -45 -3 -126 -2
-181 1 -56 4 -103 3 -106 -2 -8 -11 -51 1 -61 17 -6 8 -10 7 -16 -2 -6 -9 -24
-11 -63 -6 -30 3 -87 8 -126 11 -40 2 -73 9 -73 14 0 5 9 9 20 9 13 0 20 7 20
20 0 11 -4 20 -10 20 -5 0 -10 -4 -10 -10 0 -5 -9 -10 -19 -10 -11 0 -22 -9
-26 -19 -5 -16 -18 -20 -73 -25 -174 -14 -323 -35 -339 -48 -6 -5 -39 -8 -73
-7 -36 2 -65 -2 -72 -9 -14 -14 -104 -16 -112 -3 -4 5 -28 3 -59 -6 -28 -8
-62 -17 -74 -20 -13 -3 -23 -9 -23 -14 0 -5 -22 -9 -49 -9 -27 0 -51 -5 -53
-11 -2 -7 -30 -11 -70 -11 -85 1 -193 36 -231 76 -23 24 -30 27 -38 15 -8 -12
-10 -12 -20 1 -8 11 -12 12 -16 3 -6 -15 -83 -18 -83 -3 0 6 -13 10 -29 10
-16 0 -32 6 -35 13 -5 10 -7 10 -12 0 -9 -20 -66 -15 -94 7 -14 11 -33 20 -42
20 -10 0 -18 5 -18 10 0 6 -7 10 -15 10 -8 0 -15 5 -15 10 0 6 -4 10 -10 10
-5 0 -10 -9 -10 -20 0 -26 -28 -26 -51 1 -19 22 -20 59 -4 179 6 47 4 58 -13
78 -24 27 -34 28 -52 1 -8 -12 -21 -27 -27 -35 -16 -16 -17 -49 -2 -77 9 -16
9 -22 0 -25 -6 -2 -11 -14 -11 -27 0 -34 -10 -55 -26 -55 -8 0 -14 9 -14 20 0
12 -7 20 -16 20 -9 0 -25 10 -35 22 -11 11 -19 16 -19 10 0 -23 -18 -11 -29
18 -7 23 -16 30 -35 30 -15 0 -26 -5 -26 -12 0 -6 -9 -1 -20 12 -11 13 -20 27
-20 32 0 5 -4 7 -10 3 -5 -3 -7 -12 -3 -20 8 -23 -50 -19 -72 5 -10 11 -29 20
-42 20 -18 0 -25 7 -30 30 -5 30 -6 30 -23 10 -24 -27 -44 -25 -58 5 -15 33
-15 35 2 35 7 0 16 11 18 25 5 26 -1 32 -18 15 -6 -6 -15 -5 -24 1 -11 8 -12
12 -2 16 6 2 12 13 12 24 0 14 7 19 30 19 19 0 30 5 30 14 0 19 28 28 50 16
28 -15 48 -12 52 7 3 14 8 12 32 -10 30 -28 81 -37 88 -15 3 9 15 9 49 0 42
-11 103 -10 144 2 26 8 71 -16 67 -36 -1 -8 4 -21 12 -27 16 -13 70 -1 111 26
11 7 29 13 40 12 11 0 14 -3 8 -6 -7 -2 -13 -9 -13 -14 0 -12 33 -12 46 1 10
10 64 -8 64 -22 0 -4 26 -7 57 -7 32 0 59 -4 61 -10 2 -6 26 -11 54 -11 38 0
49 3 45 14 -5 14 16 36 54 56 41 22 169 -6 169 -37 0 -7 5 -13 10 -13 6 0 10
3 10 8 0 4 14 16 30 27 18 12 30 29 30 43 0 12 5 22 10 22 6 0 10 -4 10 -10 0
-5 7 -10 15 -10 8 0 15 2 15 4 0 2 3 11 6 20 5 13 -1 16 -25 16 -31 0 -42 13
-18 24 6 3 2 3 -10 0 -13 -3 -23 -1 -23 5 0 7 -17 9 -47 5 -128 -16 -163 -16
-157 -1 3 10 21 15 59 15 45 0 59 5 80 26 16 16 37 26 55 26 17 0 30 4 30 10
0 5 6 7 14 4 20 -8 8 -42 -18 -48 -20 -4 42 -1 94 6 18 2 24 -1 21 -12 -18
-73 -18 -81 -5 -95 8 -7 14 -21 14 -29 0 -19 23 -21 53 -4 30 16 47 34 47 51
0 9 5 17 11 19 9 3 9 9 1 25 -11 20 -9 21 34 25 41 3 51 -1 82 -29 33 -31 35
-34 22 -58 -12 -23 -36 -31 -77 -26 -6 1 -14 -3 -18 -8 -3 -6 -12 -8 -20 -5
-7 3 -23 0 -35 -6 l-22 -12 27 -14 c30 -15 115 -19 115 -5 0 5 16 9 35 8 24
-1 40 6 53 21 21 24 68 30 74 10 3 -7 19 -11 41 -10 20 2 37 -2 37 -8 0 -5 7
-10 15 -10 8 0 15 6 15 14 0 9 -17 17 -52 21 -44 6 -49 9 -35 19 9 7 35 11 58
9 41 -3 41 -3 27 19 -27 42 -28 68 -5 73 59 14 127 9 127 -9 0 -8 5 -16 12
-18 7 -3 3 -12 -11 -25 -22 -20 -14 -42 9 -28 6 3 10 -3 10 -14 0 -12 -4 -21
-10 -21 -5 0 -10 -13 -10 -30 0 -22 5 -30 18 -30 10 0 26 14 35 30 12 20 26
30 41 30 13 0 26 7 30 15 3 8 15 15 26 15 12 0 28 -7 36 -15 9 -8 24 -15 35
-15 10 0 19 -4 19 -10 0 -5 -9 -10 -20 -10 -11 0 -20 5 -20 11 0 6 -7 3 -16
-6 -19 -19 -18 -20 22 -28 26 -5 33 -2 44 19 7 13 21 24 29 24 9 0 22 9 29 20
10 17 23 20 80 20 56 0 70 -3 82 -20 16 -23 47 -26 85 -8 30 14 16 28 -27 28
-16 0 -28 5 -28 10 0 6 18 10 40 10 22 0 40 -4 40 -9 0 -11 43 -28 93 -36 21
-3 41 -13 44 -21 3 -7 13 -14 23 -14 10 0 20 -6 23 -12 3 -9 7 -6 13 6 5 13 3
21 -4 24 -7 2 -12 11 -12 19 0 9 -10 24 -22 34 -11 11 -19 21 -17 23 2 2 29 6
59 8 30 3 47 3 38 1 -23 -6 -23 -18 0 -35 10 -7 21 -21 25 -30 3 -10 15 -18
26 -18 11 0 25 -9 31 -20 14 -26 35 -25 54 2 9 12 16 17 16 10 0 -6 7 -12 15
-12 8 0 15 -4 15 -10 0 -6 28 -10 65 -10 67 0 74 4 52 34 -12 17 -47 14 -47
-5 0 -15 -39 -10 -73 8 -18 10 -57 25 -87 35 -46 14 -51 18 -32 23 22 7 31 25
12 25 -16 0 -12 18 10 40 11 11 20 25 20 30 0 15 -45 30 -86 30 -19 0 -34 5
-34 10 0 6 -8 10 -18 10 -10 0 -23 5 -30 12 -7 7 -41 12 -82 12 -48 0 -71 4
-74 13 -9 22 4 41 33 46 16 3 36 14 46 24 11 11 37 18 69 20 89 6 238 2 260
-7 11 -4 41 -7 65 -7 26 0 46 -4 49 -11 2 -7 -2 -12 -8 -12 -6 0 -10 -6 -8
-12 3 -7 22 -13 46 -13 33 0 42 4 46 20 4 16 8 17 18 7 6 -6 19 -12 27 -11 11
0 12 2 4 6 -7 2 -13 13 -13 23 0 16 7 18 50 17 52 -2 72 -19 42 -36 -15 -9
-14 -10 5 -11 12 0 33 12 46 26 23 24 31 26 120 27 90 2 97 1 108 -20 7 -13
10 -25 8 -27 -2 -2 -28 2 -58 10 -56 14 -88 6 -77 -21 2 -6 -11 -17 -30 -24
-39 -14 -49 -51 -14 -51 11 0 20 4 20 8 0 11 154 52 192 52 14 0 28 4 30 8 2
5 20 12 41 15 31 5 37 3 37 -13 0 -10 7 -21 16 -24 20 -8 64 -8 64 0 0 11 -29
34 -44 34 -9 0 -16 7 -16 15 0 12 11 15 50 13 35 -2 50 -7 50 -16 0 -10 6 -12
18 -6 9 4 29 8 43 9 14 1 31 5 37 9 6 4 34 4 62 0 42 -5 51 -4 56 11 4 10 1
21 -7 27 -11 8 -10 9 4 4 18 -6 28 0 73 41 32 29 122 31 155 2 12 -10 29 -19
39 -19 9 0 20 -4 25 -9 21 -18 117 -42 129 -32 7 6 16 8 19 5 3 -4 32 -3 63 1
49 6 64 13 97 46 46 44 57 48 57 18 0 -28 26 -47 56 -41 20 4 21 7 11 29 -9
19 -8 26 4 34 9 6 -1 9 -33 9 -51 0 -51 0 -42 24 5 12 21 16 65 16 33 0 59 -4
59 -10 0 -14 33 -13 48 2 8 8 12 8 12 1 0 -6 19 -13 43 -16 23 -3 61 -10 85
-17 50 -15 64 -7 34 19 -33 28 -27 40 18 34 36 -5 40 -3 40 16 0 11 -4 21 -10
21 -5 0 -10 9 -10 20 0 11 -4 20 -10 20 -5 0 -10 11 -10 25 0 21 5 25 30 25
21 0 30 5 30 16 0 20 24 44 44 44 8 0 18 5 21 10 9 15 44 12 61 -5 14 -13 14
-17 0 -30 -8 -8 -26 -15 -40 -15 -14 0 -26 -4 -26 -8 0 -20 28 -32 72 -32 41
0 48 3 48 20 0 15 7 20 28 20 19 0 42 13 70 38 39 36 42 43 42 90 0 48 2 52
24 52 14 0 28 -4 31 -10 9 -14 85 -13 85 1 0 8 21 9 68 5 37 -4 99 -9 137 -12
39 -3 74 -10 79 -15 6 -5 17 -9 27 -9 19 0 69 47 69 65 0 16 -31 50 -54 58
-16 7 -18 15 -12 75 4 37 12 79 18 95 9 24 15 27 57 27 33 0 53 -6 72 -23z
m138 -776 c8 -6 12 -18 8 -31 -5 -21 -3 -22 29 -17 19 3 34 1 34 -4 0 -5 14
-24 31 -41 17 -18 26 -34 20 -36 -6 -2 -11 -14 -11 -27 0 -21 5 -23 93 -31
106 -10 157 -8 171 6 19 19 63 11 80 -15 14 -22 15 -31 4 -68 -16 -53 -140
-181 -184 -190 -16 -3 -49 -11 -74 -17 -25 -6 -62 -14 -83 -17 -20 -3 -40 -9
-43 -14 -3 -5 -21 -9 -41 -9 -34 0 -73 -28 -73 -52 0 -4 -5 -8 -11 -8 -6 0
-24 -13 -39 -30 -15 -16 -35 -30 -44 -30 -9 0 -16 -4 -16 -10 0 -5 -8 -10 -18
-10 -10 0 -24 -9 -32 -20 -8 -11 -20 -20 -28 -20 -7 0 -22 -9 -34 -20 -12 -11
-28 -20 -35 -20 -7 0 -13 -4 -13 -10 0 -5 -9 -10 -20 -10 -11 0 -20 -4 -20
-10 0 -5 -7 -10 -15 -10 -8 0 -15 -4 -15 -10 0 -5 -7 -10 -15 -10 -8 0 -15 -4
-15 -10 0 -5 -6 -10 -13 -10 -7 0 -19 -9 -27 -20 -8 -11 -20 -20 -27 -20 -7 0
-13 -4 -13 -10 0 -5 -6 -10 -13 -10 -8 0 -29 -16 -47 -36 -32 -36 -32 -37 -16
-65 20 -35 5 -48 -25 -20 -17 16 -25 18 -45 9 -13 -6 -24 -15 -24 -20 0 -4 -6
-8 -12 -8 -7 0 -21 -19 -31 -41 -13 -26 -30 -44 -52 -53 -18 -8 -36 -19 -39
-25 -11 -17 -44 -13 -61 7 -14 15 -26 17 -93 10 -42 -3 -89 -7 -103 -7 -28 -1
-69 -31 -69 -50 0 -8 -8 -10 -20 -6 -12 4 -20 2 -20 -5 0 -14 -43 -3 -102 26
-26 13 -54 24 -62 24 -7 0 -16 7 -20 15 -3 8 -21 23 -41 32 -19 9 -35 20 -35
25 0 4 -12 8 -27 8 -27 -1 -27 -1 -9 -15 19 -15 19 -15 -1 -15 -11 0 -23 7
-27 15 -3 8 -12 15 -21 15 -23 0 -66 31 -59 42 16 25 -64 31 -90 7 -6 -5 -25
-9 -42 -9 -18 0 -36 -4 -39 -10 -3 -5 -17 -10 -31 -10 -13 0 -24 -3 -24 -8 0
-16 -121 -72 -190 -88 -30 -7 -98 -25 -150 -39 -84 -22 -218 -50 -360 -74 -25
-5 -80 -20 -123 -35 -50 -17 -117 -30 -190 -37 -61 -6 -175 -17 -252 -26 -77
-9 -234 -19 -350 -24 -115 -4 -262 -13 -325 -19 -63 -6 -164 -14 -225 -17 -60
-2 -116 -9 -122 -15 -9 -7 -47 -8 -110 -2 -85 6 -146 8 -195 5 -20 -1 -91 10
-108 17 -8 3 -26 7 -40 9 -14 1 -48 5 -76 9 -34 4 -59 2 -75 -7 -37 -20 -199
-44 -208 -31 -4 5 -17 16 -30 25 -22 15 -26 15 -60 -3 -28 -14 -46 -16 -76
-10 -59 11 -79 21 -64 30 9 6 9 12 -4 24 -19 19 -44 21 -49 4 -3 -9 -9 -8 -22
5 -10 9 -22 17 -27 17 -5 0 -9 9 -9 19 0 12 -9 21 -24 25 -30 7 -56 -2 -56
-19 0 -16 25 -26 45 -19 8 4 15 1 15 -4 0 -14 -37 -25 -75 -24 -37 2 -125 -17
-125 -27 0 -20 -156 -32 -360 -27 -313 7 -309 7 -315 16 -3 5 -12 7 -19 4 -8
-3 -31 0 -53 6 -21 6 -74 15 -117 20 -44 5 -83 15 -87 21 -5 8 -24 10 -61 6
-50 -6 -165 6 -198 20 -8 4 -30 7 -48 8 -37 2 -49 11 -54 40 -5 34 -23 44 -81
42 -32 -1 -61 4 -71 12 -32 27 -127 43 -181 31 l-35 -8 0 50 c0 41 3 51 20 55
11 3 20 9 20 13 0 11 38 2 78 -18 17 -9 32 -24 32 -34 0 -23 16 -32 24 -13 4
12 19 15 61 14 30 -1 55 -6 55 -11 0 -4 18 -8 40 -8 22 0 40 5 40 10 0 6 16
10 35 10 19 0 35 -5 35 -11 0 -5 4 -8 9 -5 5 3 7 15 4 26 -5 19 11 28 20 13 3
-5 35 -8 71 -8 58 1 66 -2 66 -18 0 -16 5 -17 45 -11 44 6 135 -12 135 -28 0
-11 114 0 118 12 5 13 62 13 62 1 0 -15 40 -24 53 -12 8 6 49 9 98 6 47 -1 92
1 100 5 8 5 19 4 26 -2 9 -7 17 -7 26 0 13 11 33 11 122 -2 22 -3 108 -7 191
-9 109 -2 156 -6 168 -16 13 -11 20 -11 40 3 15 9 26 11 28 5 2 -5 29 -11 61
-12 44 -2 57 -5 57 -18 0 -27 11 -29 36 -6 42 40 48 42 112 42 44 0 66 4 71
14 7 11 12 11 31 1 13 -7 25 -8 29 -3 14 22 45 29 94 23 29 -4 69 -5 90 -2 21
3 37 0 37 -6 0 -12 132 -3 141 11 4 5 9 5 14 -3 8 -12 61 -5 82 12 7 5 17 7
23 3 7 -4 14 2 17 15 4 13 8 17 13 11 7 -12 78 -22 85 -11 2 3 36 5 77 3 47
-1 83 3 102 12 21 11 33 12 48 4 15 -8 22 -8 28 1 11 17 90 23 117 9 16 -9 30
-9 50 -2 34 13 113 15 113 4 0 -8 131 -27 160 -23 8 1 42 4 74 7 33 3 64 11
70 19 19 24 172 57 189 40 10 -10 97 -14 97 -4 0 5 34 16 75 25 42 10 82 23
90 31 18 18 39 18 32 0 -9 -22 24 -43 74 -48 39 -4 49 -2 69 19 26 27 67 48
88 44 6 -1 12 3 12 9 0 5 -7 10 -15 10 -17 0 -18 2 -9 24 7 18 60 22 66 6 2
-6 25 -2 58 10 30 11 74 20 97 20 23 0 44 5 47 13 5 10 7 10 12 0 7 -16 24
-17 24 -2 0 7 10 20 22 30 18 16 38 19 150 19 121 0 128 1 128 20 0 26 15 26
33 -1 l15 -21 26 23 c34 30 35 59 1 59 -14 0 -25 -6 -26 -12 0 -10 -2 -10 -6
0 -2 6 -18 12 -34 12 -33 0 -34 2 -17 33 19 37 35 47 72 47 20 0 36 5 36 10 0
6 7 10 15 10 8 0 15 -4 15 -10 0 -15 50 -12 51 3 0 10 2 10 6 0 6 -15 93 -18
93 -3 0 6 20 10 44 10 26 0 47 5 50 13 5 10 7 10 12 0 7 -15 64 -18 64 -3 0 6
37 10 90 10 83 0 90 1 90 20 0 19 7 20 95 20 57 0 95 4 95 10 0 6 20 10 43 10
36 0 46 -4 55 -22 l11 -23 0 23 c1 27 12 28 31 2 11 -15 26 -20 62 -20 26 0
48 5 48 10 0 6 9 10 20 10 11 0 20 -4 20 -10 0 -5 11 -10 25 -10 14 0 25 -4
25 -10 0 -5 7 -10 15 -10 8 0 15 -4 15 -10 0 -5 11 -10 25 -10 14 0 25 -4 25
-10 0 -5 21 -10 46 -10 37 0 45 3 40 15 -8 21 3 45 21 45 8 0 28 -14 44 -31
26 -27 30 -29 44 -16 8 9 15 20 15 26 0 17 64 81 81 81 9 0 22 14 29 30 12 28
50 44 50 20 0 -5 5 -10 10 -10 6 0 10 9 10 20 0 11 -4 20 -10 20 -17 0 -11 27
7 34 15 6 32 -8 33 -25 0 -14 41 -16 54 -3 8 8 23 14 33 14 10 0 25 9 33 20 8
11 20 20 27 20 7 0 13 5 13 10 0 6 22 10 48 10 34 0 54 6 70 20 12 11 24 20
28 20 4 0 17 12 29 26 23 26 35 30 108 33 34 1 37 4 37 29 0 22 7 32 32 44
l33 15 -57 17 c-31 9 -68 16 -83 16 -48 0 -119 38 -134 71 -7 16 -10 33 -7 36
3 4 42 9 86 12 56 5 85 11 97 24 19 19 40 22 62 8z m-6419 -241 c0 -5 14 -10
30 -10 29 0 30 -2 30 -45 0 -25 -4 -45 -10 -45 -5 0 -10 -9 -10 -21 0 -11 -6
-27 -14 -35 -17 -16 -66 -19 -66 -4 0 6 -9 10 -20 10 -13 0 -20 7 -20 20 0 13
-7 20 -20 20 -11 0 -20 7 -20 15 0 8 5 15 10 15 6 0 10 5 10 11 0 6 7 18 16
26 13 13 17 14 24 3 7 -11 11 -10 24 3 9 8 16 23 16 31 0 9 5 16 10 16 6 0 10
-4 10 -10z m-1044 -730 c28 -16 39 -18 50 -9 11 9 18 8 29 -1 9 -7 29 -13 45
-12 17 0 30 -4 30 -9 0 -5 16 -9 35 -9 19 0 35 -4 35 -10 0 -5 7 -10 15 -10
12 0 15 -13 15 -55 0 -40 4 -57 15 -61 21 -8 19 -26 -2 -21 -90 24 -113 33
-113 42 0 17 -40 36 -61 30 -13 -4 -19 -2 -19 9 0 9 -4 16 -9 16 -5 0 -12 10
-16 23 -4 13 -8 17 -12 10 -2 -7 -9 -13 -15 -13 -5 0 -16 -7 -24 -15 -9 -8
-31 -15 -50 -15 -42 0 -134 28 -134 41 0 5 -18 9 -40 9 -30 0 -40 4 -40 16 0
29 25 40 97 43 57 2 101 9 130 20 1 1 19 -8 39 -19z m7040 -151 c4 -8 9 -8 17
0 16 16 30 14 55 -9 17 -16 19 -25 13 -43 -13 -33 -3 -43 50 -51 26 -4 55 -13
65 -20 11 -8 32 -12 54 -9 31 4 37 1 49 -21 19 -34 51 -35 51 -1 0 29 0 29 35
13 29 -13 32 -26 9 -43 -15 -10 -15 -13 0 -27 18 -19 21 -38 6 -38 -5 0 -10
-8 -10 -18 0 -19 -38 -103 -50 -112 -4 -3 -12 -15 -19 -27 -6 -13 -23 -26 -36
-29 -14 -3 -25 -9 -25 -14 0 -14 -38 -50 -54 -50 -8 0 -27 17 -40 38 -14 20
-46 60 -73 89 -26 28 -60 67 -76 87 -25 32 -156 126 -176 126 -5 0 -15 7 -22
17 -8 9 -32 24 -54 34 -23 10 -51 27 -64 38 l-23 20 34 0 c63 0 116 6 124 14
4 4 19 7 34 7 34 0 90 19 90 31 0 13 27 11 36 -2z m-10067 -56 c12 -10 40 -34
61 -53 22 -19 52 -45 67 -58 15 -12 39 -31 52 -42 13 -11 27 -20 31 -20 14 0
50 -38 50 -53 0 -9 -11 -24 -24 -32 -26 -17 -68 -14 -134 8 -23 8 -35 8 -40 1
-11 -17 -49 -34 -76 -34 -14 0 -26 -4 -26 -10 0 -5 -6 -10 -13 -10 -8 0 -29
-7 -47 -16 -42 -21 -111 -27 -159 -14 -24 6 -37 6 -39 0 -6 -18 -22 -11 -22 9
0 11 -4 23 -10 26 -5 3 -10 17 -10 31 0 22 -3 24 -54 24 l-55 0 -3 48 -3 47
-60 6 c-33 3 -46 6 -28 7 18 1 48 11 68 22 20 11 49 20 65 20 16 0 39 4 52 9
13 5 58 19 101 32 42 12 77 26 77 31 0 4 15 8 33 8 18 0 37 4 43 9 5 5 23 11
39 14 17 2 32 5 35 6 3 0 16 -7 29 -16z m959 5 c7 -7 12 -24 12 -39 0 -36 14
-39 90 -22 118 28 210 29 210 3 0 -21 -106 -134 -118 -126 -5 3 -21 -2 -36
-10 -38 -19 -46 -18 -46 6 0 15 -9 22 -30 27 -20 3 -30 12 -30 23 0 16 -18 30
-40 30 -5 0 -11 -8 -15 -19 -5 -15 -13 -17 -55 -13 -45 4 -50 3 -50 -16 0 -24
-18 -32 -70 -32 -30 0 -45 8 -79 40 -35 34 -40 43 -31 60 6 11 17 20 26 20 8
0 37 11 64 25 27 14 60 25 72 26 13 0 39 7 58 14 45 17 53 18 68 3z m7915
-150 c26 1 21 -13 -10 -29 -16 -8 -30 -16 -33 -19 -3 -3 -26 -16 -52 -29 -26
-13 -55 -31 -65 -40 -10 -9 -34 -28 -53 -43 -86 -65 -180 -171 -180 -203 0
-20 38 -19 81 2 27 14 58 18 154 17 66 -1 152 -6 190 -13 65 -10 158 -22 280
-36 28 -3 59 -10 70 -14 43 -18 92 -31 113 -31 12 0 22 -4 22 -10 0 -5 14 -10
30 -10 17 0 30 -4 30 -10 0 -5 9 -10 20 -10 11 0 20 -3 20 -8 0 -4 13 -13 29
-20 16 -7 31 -22 34 -32 4 -17 0 -20 -29 -20 -19 0 -34 -4 -34 -10 0 -5 -9
-10 -20 -10 -11 0 -20 -4 -20 -10 0 -6 -40 -10 -100 -10 -60 0 -100 -4 -100
-10 0 -5 -11 -10 -25 -10 -14 0 -25 -4 -25 -10 0 -5 7 -10 15 -10 8 0 15 -9
15 -20 0 -11 -4 -20 -10 -20 -5 0 -10 -4 -10 -10 0 -5 22 -10 48 -10 36 0 51
-5 62 -20 9 -12 26 -20 44 -20 50 0 20 -12 -38 -16 -39 -2 -56 1 -56 9 0 7 -6
3 -12 -8 -21 -36 -42 -44 -115 -45 -40 0 -73 -5 -75 -10 -2 -6 -19 4 -39 22
-20 18 -51 44 -69 58 -18 14 -39 31 -46 38 -18 17 -24 15 -24 -8 0 -11 5 -20
10 -20 6 0 10 -9 10 -20 0 -16 -7 -20 -30 -20 -16 0 -30 5 -30 10 0 6 -6 10
-13 10 -7 0 -23 9 -35 20 -12 11 -26 20 -32 20 -12 0 -40 24 -40 34 0 3 22 6
48 6 36 0 51 -5 62 -20 8 -11 20 -20 27 -20 16 0 16 3 1 35 -9 21 -18 25 -55
25 -23 0 -43 5 -43 10 0 6 -20 10 -45 10 -25 0 -45 5 -45 10 0 6 -27 10 -60
10 -33 0 -60 -4 -60 -10 0 -5 -18 -10 -40 -10 -22 0 -40 -4 -40 -10 0 -5 -11
-10 -25 -10 -14 0 -25 -6 -26 -12 0 -10 -2 -10 -6 0 -2 6 -18 12 -34 12 -16 0
-29 5 -29 10 0 18 -39 10 -45 -9 -13 -42 -65 -80 -65 -48 0 8 -4 7 -11 -3 -8
-11 -12 -12 -16 -2 -7 18 -150 16 -169 -2 -19 -20 -18 -26 6 -26 11 0 20 -4
20 -8 0 -5 12 -14 27 -21 21 -10 28 -9 34 1 6 9 13 7 27 -10 24 -27 52 -20 52
14 0 15 6 24 16 24 11 0 14 -6 9 -20 -5 -16 -2 -20 14 -20 12 0 21 -4 21 -10
0 -5 9 -10 20 -10 11 0 20 -4 20 -10 0 -5 5 -10 11 -10 13 0 49 -38 49 -53 0
-5 -7 -6 -17 -1 -20 9 -87 9 -152 -1 -28 -5 -59 -2 -85 6 -42 14 -86 49 -86
70 0 6 -10 21 -22 32 -16 13 -19 21 -10 24 6 3 12 9 12 14 0 12 -237 12 -245
-1 -8 -13 -55 -13 -55 1 0 6 -5 7 -12 2 -15 -9 -107 -21 -223 -29 -44 -3 -86
-11 -95 -18 -8 -7 -27 -16 -42 -20 -25 -6 -28 -11 -28 -47 l0 -40 -44 31 c-46
31 -66 37 -66 20 0 -13 -46 -13 -71 1 -15 7 -24 7 -35 -1 -11 -10 -16 -8 -23
11 -5 13 -10 18 -10 12 -1 -7 -12 -13 -26 -13 -13 0 -36 -5 -50 -12 -22 -10
-28 -9 -36 3 -6 10 -9 7 -9 -13 0 -33 -11 -37 -120 -37 -47 0 -217 -1 -379 -1
-197 -1 -297 2 -304 9 -13 13 -67 15 -67 2 0 -5 6 -12 13 -15 6 -3 -1 -2 -18
1 -16 3 -37 14 -46 25 -9 10 -21 18 -28 18 -6 0 -11 5 -11 10 0 6 -7 10 -15
10 -8 0 -23 4 -33 9 -9 5 -25 12 -34 15 -11 3 -15 11 -12 21 4 10 0 15 -10 15
-9 0 -16 4 -16 10 0 5 -6 7 -14 4 -7 -3 -20 2 -29 10 -17 17 -47 22 -47 7 0
-5 6 -12 13 -14 9 -4 8 -8 -3 -16 -12 -8 -9 -12 18 -17 22 -4 32 -12 32 -25 0
-30 -18 -32 -45 -5 -14 15 -36 26 -47 26 -17 0 -19 -3 -10 -12 19 -19 14 -28
-13 -28 -14 0 -25 5 -25 10 0 6 5 10 10 10 6 0 10 5 10 10 0 6 -13 10 -29 10
-16 0 -32 6 -35 13 -5 10 -7 10 -12 0 -6 -14 -50 -18 -58 -5 -3 5 4 15 15 22
23 17 24 36 5 56 -17 16 -66 19 -66 4 0 -5 9 -10 20 -10 11 0 20 -4 20 -10 0
-15 -58 -12 -63 3 -2 6 -8 9 -12 5 -5 -5 2 -16 13 -27 30 -25 27 -34 -9 -29
-23 4 -33 0 -41 -15 -7 -15 -7 -22 3 -28 10 -6 9 -10 -6 -15 -11 -5 -20 -3
-23 4 -2 7 -12 12 -23 12 -10 0 -19 5 -19 10 0 6 -13 10 -30 10 -16 0 -30 5
-30 10 0 6 -9 10 -20 10 -16 0 -20 -7 -20 -30 0 -16 -4 -30 -10 -30 -5 0 -10
5 -10 10 0 14 -37 12 -43 -2 -3 -9 -10 -6 -22 10 -18 24 -50 30 -58 10 -4 -10
-8 -9 -16 2 -8 12 -11 10 -19 -9 -6 -16 -11 -20 -16 -13 -4 7 -16 12 -27 12
-12 0 -19 7 -19 20 0 11 -4 20 -10 20 -5 0 -10 -5 -10 -12 0 -9 -3 -9 -12 0
-7 7 -20 12 -30 12 -10 0 -18 5 -18 11 0 6 -7 3 -16 -5 -8 -9 -13 -20 -10 -24
3 -5 -8 -6 -25 -4 -29 4 -34 -2 -30 -36 2 -15 -21 -11 -76 14 -24 11 -33 21
-33 39 0 14 -4 25 -10 25 -5 0 -10 9 -10 20 0 13 7 20 20 20 11 0 20 5 20 10
0 6 11 10 25 10 14 0 25 5 25 10 0 6 11 10 25 10 14 0 25 5 25 10 0 6 9 10 20
10 11 0 20 5 20 10 0 6 14 10 31 10 26 0 29 -3 24 -20 -5 -16 -2 -20 14 -20
12 0 21 -4 21 -10 0 -5 18 -10 40 -10 22 0 40 5 40 10 0 6 7 10 15 10 8 0 15
5 15 10 0 6 5 10 11 10 35 0 53 77 25 106 -22 22 -95 18 -116 -6 -12 -13 -31
-21 -59 -22 -22 -1 -41 -5 -41 -10 0 -4 -11 -8 -25 -8 -14 0 -25 -4 -25 -10 0
-5 -13 -10 -30 -10 -16 0 -30 -4 -30 -10 0 -5 -11 -10 -25 -10 -14 0 -25 -4
-25 -10 0 -5 -16 -10 -35 -10 -21 0 -35 -5 -36 -12 0 -10 -2 -10 -6 0 -2 6
-16 12 -29 12 -13 0 -24 5 -24 10 0 6 -27 10 -60 10 -33 0 -60 -4 -60 -10 0
-5 -9 -10 -20 -10 -11 0 -20 -4 -20 -10 0 -6 -35 -10 -85 -10 -50 0 -85 4 -85
10 0 6 -18 10 -39 10 -22 0 -41 5 -43 12 -6 16 -58 -35 -58 -57 0 -10 -10 -15
-30 -15 -16 0 -30 -4 -30 -10 0 -5 -7 -10 -16 -10 -28 0 -44 -27 -44 -74 0
-25 5 -46 10 -46 6 0 10 -11 10 -25 0 -14 5 -25 10 -25 6 0 10 -11 10 -25 0
-18 -5 -25 -20 -25 -13 0 -20 -7 -20 -20 0 -21 -7 -25 -27 -12 -9 6 -7 12 7
22 15 11 20 26 20 57 0 24 -4 43 -10 43 -5 0 -10 7 -10 15 0 8 -4 15 -10 15
-5 0 -10 9 -10 20 0 11 -4 20 -10 20 -5 0 -10 5 -10 10 0 6 9 10 20 10 11 0
20 5 20 10 0 6 -9 10 -20 10 -11 0 -20 5 -20 11 0 7 -12 10 -30 7 -20 -3 -30
0 -30 9 0 7 -7 13 -15 13 -8 0 -15 -4 -15 -9 0 -5 7 -11 15 -15 17 -6 21 -56
5 -56 -5 0 -10 7 -10 15 0 9 -11 27 -25 41 l-26 26 -18 -21 c-23 -26 -31 -27
-31 -1 0 16 -7 20 -30 20 -16 0 -30 -4 -30 -10 0 -5 -12 -10 -26 -10 -29 0
-67 -31 -46 -38 19 -6 14 -22 -7 -22 -11 0 -21 -4 -23 -10 -1 -5 -15 1 -30 14
-28 23 -37 51 -18 58 6 2 11 61 12 141 1 75 5 137 10 137 4 0 8 5 8 10 0 6 -9
10 -20 10 -22 0 -26 20 -8 38 9 9 7 13 -5 18 -11 4 -17 17 -17 35 0 16 -6 38
-12 49 -15 24 -1 42 27 34 26 -7 45 -46 33 -68 -12 -22 -3 -46 17 -46 8 0 15
-4 15 -10 0 -5 7 -10 15 -10 8 0 15 5 15 10 0 6 -6 10 -14 10 -10 0 -14 9 -12
28 2 15 4 33 5 41 1 8 8 11 21 8 12 -3 30 4 47 19 15 13 30 19 31 14 2 -6 17
-10 33 -10 16 0 29 -4 29 -10 0 -5 5 -10 10 -10 6 0 10 6 10 14 0 19 89 34 99
18 4 -7 34 -11 71 -10 98 1 170 -11 170 -29 0 -11 4 -13 13 -6 6 5 29 15 50
22 30 10 44 10 73 -1 27 -10 37 -10 43 0 9 15 106 18 140 5 18 -7 38 -5 70 7
34 12 67 15 131 12 47 -3 131 -6 188 -7 60 -1 108 -7 115 -14 6 -6 19 -11 29
-11 10 0 18 -4 18 -10 0 -5 9 -10 20 -10 16 0 20 -7 20 -30 0 -27 3 -30 30
-30 17 0 30 5 30 10 0 6 9 10 20 10 11 0 20 5 20 11 0 6 -9 8 -20 4 -15 -5
-20 -2 -20 10 0 12 5 15 16 11 9 -4 27 0 39 8 29 19 52 6 25 -14 -11 -8 -20
-18 -20 -22 0 -16 36 -7 50 12 8 12 21 18 31 15 9 -3 24 1 32 10 9 8 27 15 41
15 15 0 26 6 26 13 0 15 41 37 68 37 13 -1 11 -4 -7 -14 -17 -10 -20 -15 -10
-18 19 -7 83 3 90 14 9 14 152 14 157 0 2 -7 -2 -12 -10 -12 -7 0 -22 -7 -32
-15 -16 -12 -17 -17 -6 -30 11 -13 8 -15 -18 -15 -30 0 -61 -25 -47 -38 4 -4
10 -1 12 6 3 6 19 12 37 12 19 0 41 9 54 20 17 16 26 18 40 11 10 -5 35 -8 56
-6 l38 3 -6 -41 c-6 -40 6 -79 19 -65 3 3 7 21 7 39 1 23 9 41 27 56 25 22
101 41 119 29 6 -3 26 1 45 9 19 8 37 11 40 8 4 -3 12 -1 19 4 17 14 115 15
123 2 5 -6 11 -7 18 0 7 5 57 11 112 14 55 2 108 8 119 12 10 4 42 4 72 -2 35
-6 55 -6 57 0 9 28 157 23 157 -5 0 -15 33 -8 49 11 15 17 22 18 63 9 56 -13
117 4 97 28 -8 10 -5 12 16 10 15 -2 31 -9 35 -16 7 -11 14 -11 35 -2 14 7 35
12 45 12 11 0 20 5 20 10 0 6 15 10 34 10 19 0 38 5 41 10 7 12 65 14 65 2 0
-4 41 -3 90 2 50 5 90 13 90 17 0 5 37 9 83 9 51 0 88 5 95 12 9 9 12 9 12 0
0 -7 9 -12 20 -12 11 0 20 5 20 10 0 6 53 10 139 10 85 0 141 4 143 10 2 6 23
12 47 14 24 2 46 9 50 15 5 7 35 9 89 5 54 -3 89 -1 104 7 20 11 217 32 263
28 49 -4 85 -1 155 14 42 8 95 13 120 10 25 -3 53 -6 63 -5z m-7092 -20 c5 -7
19 -14 31 -14 13 -1 38 -8 56 -15 23 -10 37 -11 49 -3 20 12 118 1 139 -16 18
-16 18 -30 -1 -30 -8 0 -32 -17 -54 -39 -38 -37 -41 -38 -75 -27 -23 7 -36 17
-36 28 0 22 0 22 -36 3 -23 -11 -38 -12 -67 -4 -51 14 -77 4 -77 -28 0 -20 -4
-24 -17 -18 -36 15 -83 14 -83 -1 0 -16 -5 -17 -49 -8 -17 4 -31 13 -31 20 0
8 -4 14 -10 14 -6 0 -10 28 -10 64 0 71 -10 62 90 86 50 12 171 4 181 -12z
m517 -138 c12 -8 22 -23 22 -33 0 -10 8 -21 18 -24 9 -4 24 -15 32 -24 17 -19
71 -39 106 -39 13 0 24 -4 24 -9 0 -5 10 -11 23 -13 17 -2 21 -8 19 -30 -2
-19 2 -28 17 -33 15 -4 21 -15 21 -35 0 -22 -6 -29 -27 -34 -15 -4 -29 -3 -33
4 -4 6 -11 10 -16 9 -27 -5 -44 3 -44 21 0 15 -7 20 -29 20 -55 0 -89 12 -102
36 -12 23 -49 34 -49 14 0 -5 -7 -10 -15 -10 -9 0 -15 9 -15 24 0 13 -11 31
-25 42 -14 10 -25 26 -25 34 0 8 -9 21 -21 28 -21 13 -21 13 8 42 31 33 71 36
111 10z m391 4 c21 -5 31 -12 31 -25 0 -11 -4 -19 -10 -19 -5 0 -10 -9 -10
-20 0 -11 5 -20 10 -20 6 0 10 9 10 20 0 13 7 20 20 20 11 0 20 3 20 8 0 4 18
7 40 7 22 0 40 -2 40 -6 0 -3 15 -3 33 -1 l32 5 -22 -20 c-13 -11 -23 -28 -23
-37 0 -9 -7 -16 -15 -16 -31 0 -65 -23 -65 -46 0 -25 -18 -35 -48 -27 -11 2
-30 -1 -43 -8 -17 -9 -24 -9 -27 0 -2 6 -12 11 -23 11 -16 0 -19 7 -19 54 0
50 2 54 33 70 17 8 27 16 21 16 -6 0 -21 9 -34 20 -22 19 -22 20 -3 20 11 0
35 -3 52 -6z m7916 -41 c6 -10 12 -49 14 -88 2 -38 7 -71 12 -73 5 -2 9 -30 9
-63 0 -33 4 -59 10 -59 6 0 10 -18 10 -40 0 -22 5 -40 10 -40 6 0 10 -22 10
-50 0 -27 5 -50 10 -50 6 0 10 -13 10 -29 0 -23 -5 -31 -22 -34 -21 -3 -20 -4
7 -12 16 -5 36 -15 44 -23 12 -12 12 -15 0 -23 -10 -6 -10 -9 -1 -9 6 0 12 -7
12 -15 0 -8 5 -15 10 -15 6 0 10 -9 10 -21 0 -16 -4 -19 -20 -14 -17 5 -20 2
-20 -24 0 -21 6 -32 20 -36 11 -3 20 -11 20 -17 0 -5 7 -7 15 -4 10 4 19 -2
24 -18 5 -12 15 -29 23 -37 21 -23 48 -76 41 -82 -3 -4 -62 -4 -132 0 -70 3
-173 1 -231 -6 -139 -14 -165 -7 -234 62 -31 31 -56 63 -56 72 0 19 49 119 61
123 5 2 9 12 9 23 0 10 4 19 8 19 7 0 23 48 36 112 3 15 13 33 21 42 8 8 15
20 15 26 0 15 25 40 40 40 6 0 20 9 32 20 12 11 28 20 35 20 7 0 13 5 13 10 0
6 9 10 20 10 26 0 40 53 40 158 0 48 4 82 10 82 6 0 10 15 10 34 0 30 8 42 30
45 3 1 10 -7 15 -16z m-7476 -4 l34 1 -7 -42 c-16 -110 -27 -138 -55 -138 -6
0 -11 -4 -11 -10 0 -5 -7 -10 -15 -10 -8 0 -15 -9 -15 -20 0 -16 -7 -20 -30
-20 -35 0 -38 10 -10 30 11 8 20 17 20 21 0 14 -61 31 -90 26 -23 -5 -35 -1
-50 15 -25 27 -26 48 -2 48 18 0 42 37 42 65 0 16 64 37 86 28 8 -3 14 0 14 7
0 8 9 10 28 5 15 -4 42 -6 61 -6z m6496 -650 c5 -5 19 -9 32 -9 13 0 43 -9 68
-21 37 -17 45 -26 45 -48 0 -14 4 -32 8 -39 5 -7 6 -26 4 -43 -9 -59 -84 -70
-192 -28 -30 12 -70 26 -87 33 -18 6 -33 14 -33 18 0 5 -9 8 -20 8 -11 0 -20
5 -20 10 0 6 -7 10 -15 10 -20 0 -105 42 -105 52 0 4 -7 8 -15 8 -25 0 -85 33
-85 47 0 7 9 13 20 13 11 0 20 -5 20 -11 0 -11 31 -9 165 8 71 9 196 5 210 -8z
m-2015 -138 c0 -5 14 -4 30 2 25 9 33 9 39 -2 7 -10 13 -11 31 -1 16 9 25 9
33 1 6 -6 35 -11 64 -11 29 0 53 -4 53 -10 0 -17 58 -11 72 8 14 18 88 29 88
12 0 -6 11 -10 25 -10 33 0 75 -42 75 -75 0 -14 -4 -25 -10 -25 -5 0 -10 -7
-10 -15 0 -8 5 -15 10 -15 6 0 10 -15 10 -34 0 -19 6 -37 13 -40 12 -6 -38 -2
-183 15 -126 15 -144 17 -177 27 -22 7 -60 6 -125 -4 -117 -17 -163 -18 -180
-1 -7 8 -33 17 -58 20 -28 5 -40 4 -31 -2 11 -7 10 -12 -5 -29 -15 -15 -38
-21 -105 -27 -48 -3 -102 -12 -120 -19 -62 -22 -119 -51 -119 -58 0 -5 -6 -8
-14 -8 -7 0 -26 -13 -42 -28 -37 -35 -64 -47 -64 -28 0 10 -16 15 -50 18 -35
2 -50 -1 -50 -9 0 -7 -7 -13 -16 -13 -18 0 -44 24 -44 40 0 8 -7 9 -17 5 -27
-11 -97 -24 -103 -19 -2 3 2 9 10 14 24 15 -3 11 -30 -5 -30 -17 -69 -20 -53
-4 14 14 -6 57 -29 65 -10 3 -18 14 -18 25 0 10 -4 19 -10 19 -5 0 -10 7 -10
15 0 8 -4 15 -10 15 -5 0 -10 -20 -10 -44 0 -37 -3 -44 -22 -48 -58 -10 -75
14 -34 46 28 21 25 39 -9 54 -23 11 -24 10 -15 -14 8 -19 6 -26 -5 -30 -8 -4
-15 -14 -15 -23 0 -12 -5 -10 -20 9 -21 27 -26 50 -10 50 6 0 10 14 10 30 0
28 2 30 40 30 22 0 40 5 40 10 0 19 32 10 37 -10 3 -11 13 -20 23 -20 10 0 20
9 23 20 5 18 14 20 97 20 83 0 126 9 140 31 3 5 39 11 80 14 80 5 81 5 178 2
34 -2 62 0 62 4 0 3 17 6 37 7 21 1 39 6 41 12 5 14 39 13 44 -1 3 -9 9 -9 25
0 12 6 53 11 92 11 38 0 73 5 76 10 3 6 15 10 26 10 10 0 19 -4 19 -10 0 -5 7
-10 15 -10 8 0 15 4 15 8 0 12 60 29 108 31 23 0 42 -3 42 -8z m1100 -140 c0
-5 9 -11 20 -14 11 -3 20 -13 20 -23 0 -16 -3 -15 -23 4 -19 18 -26 20 -39 9
-14 -11 -14 -15 2 -40 11 -17 20 -24 24 -18 4 6 11 11 17 11 14 0 11 -28 -3
-33 -10 -4 -10 -8 2 -16 16 -11 33 -4 27 12 -10 30 66 50 77 21 5 -13 2 -15
-14 -11 -20 5 -55 -18 -47 -32 2 -3 9 -21 16 -38 7 -18 19 -33 27 -33 8 0 14
-5 14 -11 0 -16 48 -59 65 -59 10 0 11 -6 2 -29 -14 -37 -5 -57 29 -65 36 -9
106 -84 106 -113 0 -18 6 -23 25 -23 15 0 33 -10 45 -25 11 -14 25 -25 33 -25
12 0 29 -34 26 -53 -1 -4 10 -12 24 -17 14 -5 25 -14 25 -20 0 -17 -31 -24
-42 -9 -7 11 -11 11 -15 2 -6 -15 -79 -17 -88 -3 -3 6 -15 10 -26 10 -10 0
-19 5 -19 10 0 6 -8 10 -17 10 -29 1 -53 25 -54 56 0 28 -1 28 -11 7 -6 -13
-15 -23 -19 -23 -9 0 -49 82 -49 99 0 6 -7 11 -15 11 -15 0 -65 45 -65 59 0 5
-20 30 -45 55 -25 26 -45 53 -45 60 0 7 -11 25 -24 39 -39 43 -43 55 -34 110
16 99 17 116 8 122 -16 10 -12 23 8 28 30 8 52 7 52 -2z m-2148 -564 c18 -18
48 -28 48 -17 0 5 14 7 30 4 19 -4 30 -2 30 5 0 6 5 11 10 11 6 0 10 -9 10
-20 0 -11 5 -20 10 -20 6 0 10 -9 10 -20 0 -11 -4 -20 -10 -20 -5 0 -10 9 -10
20 0 11 -4 20 -10 20 -5 0 -10 -7 -10 -15 0 -20 -14 -19 -35 1 -9 9 -19 13
-23 9 -4 -4 -1 -10 6 -12 7 -3 12 -22 12 -44 0 -39 0 -39 -40 -39 -22 0 -40
-4 -40 -10 0 -5 -9 -10 -20 -10 -11 0 -20 4 -20 9 0 5 -7 11 -14 14 -11 4 -13
1 -9 -10 5 -13 3 -15 -13 -8 -10 4 -33 10 -51 13 -27 3 -32 9 -35 37 -3 24 0
31 9 28 7 -3 13 2 13 10 0 9 3 22 6 31 4 11 1 16 -10 16 -9 0 -16 5 -16 11 0
6 7 8 15 5 8 -3 22 -9 30 -12 8 -3 15 -1 15 4 0 21 92 28 112 9z m2268 -664
c0 -12 51 -33 77 -33 13 0 23 -2 23 -4 0 -2 3 -11 6 -20 5 -12 0 -16 -20 -16
-14 0 -26 -4 -26 -10 0 -15 67 -12 73 3 4 7 6 6 6 -4 1 -10 -9 -19 -24 -21
-46 -9 -220 0 -250 13 -29 12 -28 13 40 19 42 3 81 13 95 23 23 16 23 17 4 17
-11 0 -25 5 -32 12 -8 8 -15 8 -26 -1 -10 -9 -16 -9 -21 -1 -5 8 -11 8 -19 1
-7 -6 -16 -8 -19 -5 -3 4 -56 3 -117 -1 -89 -6 -110 -10 -106 -21 6 -16 -2
-17 -68 -8 -36 5 -46 11 -44 23 2 12 16 16 58 17 29 0 55 5 57 11 4 11 333 17
333 6z"/>
<path d="M4720 11390 c-14 -16 -33 -30 -42 -30 -10 0 -18 -4 -18 -10 0 -5 -6
-10 -14 -10 -8 0 -18 -9 -21 -20 -3 -11 -11 -20 -16 -20 -14 0 -11 38 4 43 6
2 9 8 5 12 -5 5 -16 -2 -27 -13 -10 -12 -26 -22 -35 -22 -19 0 -22 16 -3 23 6
2 8 8 4 13 -4 5 -13 2 -18 -6 -8 -11 -12 -12 -16 -2 -9 23 -23 12 -23 -18 0
-16 -4 -30 -10 -30 -5 0 -10 -4 -10 -10 0 -5 9 -10 20 -10 11 0 20 5 20 10 0
6 5 10 10 10 6 0 10 -8 10 -18 0 -21 50 -49 59 -34 3 5 26 9 51 9 24 0 46 5
48 12 5 14 42 15 42 1 0 -5 9 -10 20 -10 13 0 20 -7 20 -20 0 -16 -7 -20 -30
-20 -16 0 -30 -5 -30 -11 0 -6 -9 -9 -20 -6 -16 4 -20 0 -20 -19 0 -13 -1 -27
-2 -31 -2 -5 7 -9 20 -11 12 -2 22 1 22 7 0 6 -4 11 -10 11 -5 0 -10 5 -10 10
0 14 36 13 60 -2 15 -10 22 -10 32 0 9 9 7 12 -10 12 -27 0 -27 4 0 35 24 28
71 37 48 10 -7 -9 -11 -16 -9 -18 52 -29 89 -37 89 -17 0 6 -9 10 -20 10 -25
0 -36 25 -20 45 10 12 9 15 -4 15 -9 0 -16 5 -16 10 0 6 7 10 15 10 8 0 15 5
15 10 0 6 9 10 20 10 13 0 20 -7 20 -20 0 -13 7 -20 20 -20 11 0 20 5 20 10 0
6 -4 10 -10 10 -5 0 -10 14 -10 30 0 17 5 30 10 30 6 0 10 5 10 10 0 20 -48
11 -53 -10 -4 -14 -14 -20 -35 -20 -17 0 -32 6 -35 13 -2 7 -8 8 -13 3 -5 -5
-4 -11 4 -13 6 -3 12 -13 12 -24 0 -14 -7 -19 -30 -19 -23 0 -30 4 -30 20 0
11 5 20 10 20 6 0 10 5 10 10 0 6 -11 10 -25 10 -14 0 -25 -5 -25 -12 0 -8 -7
-6 -17 5 -12 12 -14 20 -7 25 9 6 29 63 22 62 -2 0 -14 -14 -28 -30z"/>
<path d="M5928 11255 c-4 -17 0 -29 11 -36 12 -7 13 -12 4 -15 -7 -3 -13 -19
-13 -35 0 -16 -4 -29 -10 -29 -5 0 -10 5 -10 10 0 6 -9 10 -20 10 -27 0 -25
-7 12 -41 33 -32 48 -27 48 19 0 15 6 22 20 22 16 0 20 -7 20 -38 0 -46 -19
-90 -42 -98 -11 -3 -18 -15 -18 -31 0 -24 2 -25 40 -20 22 3 40 1 40 -3 0 -10
47 -7 57 3 14 15 23 6 23 -24 0 -27 3 -30 27 -27 35 4 64 68 45 99 -9 14 -9
20 1 26 7 4 -10 12 -43 19 -42 9 -48 12 -24 13 18 0 42 10 55 21 24 19 24 19
2 20 -12 0 -23 -4 -25 -8 -1 -5 -20 -12 -40 -15 -28 -4 -38 -2 -38 8 0 7 6 16
13 19 10 5 10 7 0 12 -7 3 -13 16 -13 29 0 13 6 26 13 28 6 3 -3 6 -20 6 -35
1 -47 21 -14 21 11 0 23 5 26 10 3 6 -4 10 -17 10 -13 0 -30 9 -38 20 -8 11
-26 20 -41 20 -21 0 -28 -6 -31 -25z"/>
<path d="M5114 11174 c-5 -19 -1 -29 15 -40 30 -21 28 -53 -3 -51 -14 1 -25
-2 -25 -8 0 -5 9 -9 20 -7 11 1 27 -5 35 -13 20 -20 64 -19 79 1 10 14 14 14
26 2 15 -14 64 -38 79 -38 6 0 10 10 10 21 0 25 -35 59 -62 59 -10 0 -18 5
-18 11 0 8 -4 8 -12 2 -37 -29 -83 -18 -58 12 10 12 9 15 -8 15 -11 0 -23 8
-26 18 -3 9 -15 23 -26 29 -17 12 -20 10 -26 -13z"/>
<path d="M6410 11117 c0 -27 -28 -57 -53 -57 -9 0 -17 -4 -17 -10 0 -5 -8 -10
-17 -11 -18 -1 -17 -1 26 -15 10 -3 11 -7 2 -18 -7 -8 -10 -20 -9 -27 2 -8 -7
-15 -22 -17 -15 -2 -34 -16 -48 -35 l-22 -32 22 -6 c13 -3 27 -2 33 3 5 4 31
8 57 8 26 0 48 4 48 8 0 4 17 6 37 4 34 -4 36 -3 24 12 -11 13 -17 14 -28 5
-7 -7 -16 -10 -18 -7 -11 11 7 35 40 52 35 19 46 36 23 36 -7 0 -19 4 -27 9
-12 8 -12 13 3 37 l18 27 -24 -5 c-22 -4 -24 -2 -20 16 3 12 9 27 15 34 7 9 3
12 -17 12 -21 0 -26 -5 -26 -23z"/>
<path d="M9863 10618 c-24 -5 -43 -14 -43 -19 0 -6 -47 -8 -122 -6 -67 2 -116
1 -110 -1 23 -7 11 -22 -18 -22 -16 0 -30 -4 -30 -10 0 -5 18 -10 40 -10 22 0
40 -4 40 -10 0 -5 14 -10 30 -10 17 0 30 5 30 10 0 6 9 10 20 10 11 0 20 5 20
10 0 6 18 10 39 10 33 0 40 -4 43 -22 2 -13 10 -23 18 -23 8 0 16 -8 18 -17 2
-13 -3 -18 -17 -18 -27 0 -27 -23 1 -55 25 -29 85 -35 94 -10 4 8 14 15 24 15
10 0 23 -7 30 -15 9 -10 9 -15 1 -15 -6 0 -11 -4 -11 -10 0 -5 12 -10 26 -10
19 0 25 4 20 15 -4 11 2 15 23 15 16 0 39 8 51 18 18 15 20 21 11 44 -12 32
-55 63 -76 54 -8 -3 -15 -1 -15 4 0 6 -9 10 -20 10 -11 0 -20 4 -20 9 0 5 -17
8 -38 6 -46 -4 -70 6 -50 22 7 6 20 10 28 10 8 0 25 3 38 7 16 5 22 3 22 -7 0
-29 88 -39 110 -12 10 12 7 17 -16 26 -39 14 -140 18 -191 7z"/>
<path d="M9520 10504 c0 -41 -23 -56 -82 -53 -33 2 -53 -1 -56 -9 -2 -7 -14
-12 -26 -12 -26 0 -76 -21 -76 -32 0 -5 -6 -8 -14 -8 -12 0 -26 -20 -26 -36 0
-2 25 -4 55 -4 30 0 55 5 55 10 0 6 7 10 15 10 8 0 15 -7 15 -15 0 -19 72 -54
78 -37 6 20 80 15 99 -8 31 -36 103 -19 103 24 0 12 -10 16 -40 16 -22 0 -40
5 -40 10 0 6 -9 10 -20 10 -27 0 -25 7 10 40 17 15 30 33 30 40 0 7 7 10 16 6
8 -3 22 1 30 9 14 13 14 17 0 30 -8 8 -22 15 -30 15 -9 0 -16 5 -16 10 0 6
-18 10 -40 10 -36 0 -40 -2 -40 -26z"/>
<path d="M8606 10373 c-3 -10 -9 -24 -12 -30 -4 -9 4 -13 25 -13 17 0 31 -4
31 -10 0 -5 12 -10 26 -10 29 0 54 -21 54 -44 0 -9 8 -16 20 -16 13 0 20 7 20
20 0 11 5 20 10 20 6 0 10 -9 10 -20 0 -12 6 -20 13 -19 31 4 67 -2 67 -11 0
-5 -7 -10 -15 -10 -8 0 -15 -6 -15 -12 -1 -7 -7 -2 -15 12 -8 14 -14 19 -15
13 0 -9 -17 -13 -50 -13 -27 0 -50 -3 -50 -6 0 -11 29 -34 43 -34 9 0 18 -6
20 -12 4 -10 8 -9 16 2 6 8 11 11 11 5 0 -5 -5 -17 -11 -25 -8 -11 -12 -12
-16 -2 -2 6 -13 12 -23 12 -10 0 -20 6 -23 13 -2 6 -8 9 -12 5 -4 -4 -1 -14 6
-22 32 -36 39 -46 39 -61 0 -8 -7 -15 -15 -15 -8 0 -15 -4 -15 -10 0 -5 9 -10
20 -10 11 0 20 -4 20 -10 0 -19 80 -11 102 10 16 14 36 20 70 20 26 0 48 5 48
10 0 6 16 10 36 10 31 0 35 3 29 20 -8 26 3 25 26 -2 11 -11 19 -16 19 -10 0
7 6 12 13 12 7 0 19 9 27 20 8 11 25 20 37 20 13 0 23 5 23 10 0 6 7 10 16 10
15 0 44 23 44 34 0 3 -7 6 -15 6 -8 0 -15 -4 -15 -10 0 -5 -16 -10 -35 -10
-28 0 -35 4 -35 20 0 22 -15 27 -23 8 -4 -10 -6 -10 -6 0 -1 6 -8 12 -16 12
-8 0 -15 9 -15 20 0 16 -7 20 -30 20 -16 0 -30 5 -30 11 0 5 -5 7 -12 3 -15
-10 -72 -14 -78 -6 -20 27 -93 42 -105 22 -4 -6 -15 -2 -27 10 -23 21 -88 28
-88 10 0 -5 -13 -10 -30 -10 -35 0 -38 10 -10 30 31 23 24 30 -29 30 -37 0
-50 -4 -55 -17z"/>
<path d="M10746 10133 c3 -13 1 -23 -5 -23 -6 0 -11 5 -11 10 0 6 -13 10 -30
10 -16 0 -30 -4 -30 -10 0 -5 5 -10 10 -10 6 0 10 -4 10 -10 0 -5 -18 -10 -40
-10 -33 0 -40 -3 -40 -20 0 -13 -7 -20 -20 -20 -11 0 -20 -4 -20 -10 0 -5 -9
-10 -20 -10 -11 0 -20 5 -20 10 0 6 -7 10 -15 10 -8 0 -15 5 -15 10 0 6 9 10
20 10 11 0 20 -4 20 -10 0 -17 22 -11 41 12 22 24 21 21 13 42 -7 17 -34 22
-34 6 0 -5 -13 -10 -30 -10 -16 0 -30 -4 -30 -10 0 -5 -6 -10 -13 -10 -18 0
-67 -24 -67 -32 0 -5 -9 -8 -20 -8 -11 0 -20 -4 -20 -10 0 -5 -7 -10 -15 -10
-15 0 -25 -4 -72 -28 -13 -7 -30 -12 -38 -12 -8 0 -15 -4 -15 -10 0 -5 -11
-10 -25 -10 -14 0 -25 -4 -25 -10 0 -5 -9 -10 -20 -10 -11 0 -20 -4 -20 -10 0
-5 -6 -10 -14 -10 -17 0 -31 -51 -17 -60 7 -4 8 -17 2 -38 -7 -22 -6 -34 2
-39 6 -3 12 -2 14 4 3 7 18 7 49 1 31 -7 60 -6 89 1 24 6 78 11 119 11 42 0
76 3 76 8 0 8 48 32 64 32 6 0 22 9 36 20 14 11 35 20 47 20 27 0 73 20 73 32
0 4 6 8 13 8 7 0 23 9 35 20 13 12 35 20 57 20 19 0 35 4 35 9 0 5 14 11 30
15 23 4 30 11 30 29 0 12 -9 29 -20 37 -11 8 -20 20 -20 28 0 13 -23 42 -34
42 -3 0 -6 -9 -6 -20 0 -11 -4 -20 -10 -20 -5 0 -10 9 -10 20 0 13 -7 20 -19
20 -11 0 -22 6 -25 13 -3 6 -3 2 0 -10z"/>
<path d="M6590 10090 c-9 -12 -18 -16 -25 -10 -7 6 -16 2 -25 -10 -8 -11 -20
-20 -26 -20 -17 0 -25 -29 -14 -49 11 -21 4 -31 -21 -31 -10 0 -21 -9 -24 -20
-3 -11 -11 -20 -16 -20 -5 0 -9 -9 -9 -19 0 -20 -70 -61 -102 -61 -9 0 -20 -9
-23 -20 -3 -11 -11 -20 -16 -20 -5 0 -20 -9 -32 -20 -12 -12 -23 -16 -25 -10
-2 5 -12 10 -22 10 -10 0 -21 6 -24 13 -5 10 -7 10 -12 0 -6 -15 -44 -18 -44
-4 0 5 7 14 15 21 21 18 19 27 -8 32 -19 4 -26 -1 -34 -23 -12 -30 -1 -49 28
-49 10 0 44 -13 76 -30 l58 -30 42 21 c26 13 43 29 47 45 5 17 13 24 31 24 13
0 27 5 30 10 4 6 21 11 38 11 183 1 192 3 192 29 0 14 4 31 8 38 6 8 2 12 -12
12 -11 0 -25 9 -31 20 -10 18 -8 20 30 20 22 0 40 3 40 6 0 16 -33 34 -64 34
-42 0 -48 23 -16 60 20 23 27 60 12 60 -4 0 -14 -9 -22 -20z"/>
<path d="M6904 9965 c-4 -8 -15 -15 -25 -15 -25 0 -25 -31 1 -50 11 -8 20 -18
20 -22 0 -3 -9 -10 -20 -13 -11 -3 -20 -13 -20 -21 0 -16 -5 -17 -29 -5 -13 7
-25 4 -46 -15 -33 -28 -36 -29 -29 -9 9 23 -45 15 -75 -11 -12 -11 34 -34 75
-37 27 -2 69 -14 92 -26 42 -21 44 -22 58 -4 18 24 17 30 -6 36 -25 6 -29 57
-4 57 11 0 14 -5 10 -16 -5 -14 -1 -15 28 -10 20 4 37 2 41 -4 3 -5 17 -10 31
-10 14 0 32 -7 41 -16 9 -9 22 -12 32 -8 9 4 25 7 36 7 11 1 26 7 33 14 11 11
11 16 -2 28 -17 17 -43 20 -48 4 -2 -5 -11 -7 -22 -3 -13 5 -14 9 -5 14 18 12
-17 44 -50 45 -19 0 -25 5 -23 18 4 24 -30 22 -48 -3 -8 -11 -18 -20 -22 -20
-4 0 -8 9 -8 20 0 11 5 20 10 20 6 0 10 13 10 29 0 31 -27 51 -36 26z"/>
<path d="M7608 9948 c-23 -29 -23 -35 7 -74 29 -37 32 -64 9 -64 -27 0 -9 -25
19 -27 27 -2 36 14 17 33 -6 6 -3 14 10 22 12 7 20 8 20 2 0 -12 50 -13 69 -1
24 15 3 48 -37 59 -20 5 -29 10 -19 11 18 1 47 23 47 35 0 3 -11 6 -25 6 -14
0 -25 5 -25 10 0 6 -17 10 -37 10 -27 0 -43 -7 -55 -22z"/>
<path d="M7290 9904 c-12 -21 -12 -27 -1 -34 10 -6 8 -10 -8 -15 -18 -5 -20
-9 -10 -22 10 -12 10 -16 -2 -24 -10 -6 -10 -9 -1 -9 6 0 12 -5 12 -10 0 -20
49 -60 74 -60 13 0 26 -6 29 -12 4 -10 7 -10 18 0 11 10 10 12 -4 12 -9 0 -17
5 -17 11 0 7 12 9 34 5 65 -12 91 10 99 84 2 23 -1 24 -38 21 -22 -1 -44 -7
-49 -12 -16 -15 -24 -11 -28 14 -2 15 -9 21 -20 19 -12 -2 -18 4 -18 16 0 44
-49 56 -70 16z"/>
<path d="M9500 9780 c0 -5 -6 -10 -13 -10 -7 0 -22 -9 -34 -19 -34 -32 -77
-49 -141 -57 -40 -4 -66 -12 -71 -22 -5 -8 -24 -16 -42 -18 -73 -4 -155 -25
-181 -44 -17 -12 -43 -20 -67 -20 -22 0 -42 -4 -45 -9 -3 -4 -17 -6 -31 -3
-18 3 -33 -2 -48 -16 -12 -12 -42 -24 -67 -28 -43 -7 -64 -20 -54 -35 4 -7 39
0 110 22 37 11 114 12 114 1 0 -4 26 -8 58 -7 64 0 169 36 208 72 15 13 25 17
27 10 3 -9 8 -9 18 1 7 6 23 12 36 12 13 0 23 5 23 10 0 6 11 10 24 10 14 0
28 -4 31 -10 3 -5 17 -10 30 -10 13 0 27 5 30 10 3 6 19 10 36 10 16 0 29 5
29 10 0 14 57 13 66 -1 5 -8 8 -8 14 0 3 7 38 13 76 15 85 4 84 4 84 14 0 5
-40 7 -90 4 -51 -2 -90 0 -90 5 0 5 9 19 20 30 16 18 17 22 5 27 -21 8 -45 -3
-45 -20 0 -8 -10 -14 -22 -14 l-22 0 22 16 c12 8 22 24 22 35 0 10 5 19 10 19
6 0 10 5 10 10 0 6 -9 10 -20 10 -11 0 -20 -4 -20 -10z"/>
<path d="M9395 6690 c-3 -5 -20 -10 -36 -10 -30 0 -79 -25 -79 -41 0 -5 11 -9
24 -9 25 0 43 -26 23 -32 -7 -2 -35 -2 -64 0 -41 3 -60 11 -92 38 -36 32 -43
34 -63 22 l-23 -13 26 -3 c20 -2 28 -10 33 -33 4 -23 11 -29 31 -29 14 0 25
-4 25 -10 0 -5 16 -10 35 -10 19 0 35 5 35 10 0 6 13 10 29 10 17 0 33 -4 36
-10 3 -5 16 -10 28 -10 20 1 21 2 5 14 -20 14 -14 26 13 26 9 0 29 14 44 31
26 32 26 32 6 50 -23 22 -27 23 -36 9z"/>
</g>
</svg>
