<svg width="16" height="20" viewBox="0 0 16 20" fill="none" xmlns="http://www.w3.org/2000/svg">
<path fill-rule="evenodd" clip-rule="evenodd" d="M4 1C4 0.447715 4.44772 0 5 0H11C11.5523 0 12 0.447715 12 1V2H15C15.5523 2 16 2.44772 16 3C16 3.55228 15.5523 4 15 4V17C15 18.6569 13.6569 20 12 20H4C2.34315 20 1 18.6569 1 17V4C0.447715 4 0 3.55228 0 3C0 2.44772 0.447715 2 1 2H4V1ZM7 7C7 6.44772 6.55228 6 6 6C5.44772 6 5 6.44772 5 7V15C5 15.5523 5.44772 16 6 16C6.55228 16 7 15.5523 7 15V7ZM11 7C11 6.44772 10.5523 6 10 6C9.44771 6 9 6.44772 9 7V15C9 15.5523 9.44771 16 10 16C10.5523 16 11 15.5523 11 15V7Z" fill="#FA7854"/>
</svg>
